<?xml version="1.0" encoding="UTF-8"?>
<svg version="1.1" xmlns="http://www.w3.org/2000/svg" width="78" height="78">
<path d="M0 0 C6.96286835 4.67489207 10.39241408 10.17724225 13 18 C13.90180779 27.84596697 12.31291002 34.99366522 6.25 42.8125 C1.66530718 47.82773504 -4.52647154 50.59823233 -11.26171875 51.203125 C-20.592958 51.3834388 -27.38028432 49.44013663 -34.2734375 42.97265625 C-39.87616451 36.5713505 -41.3675398 29.44477745 -41.27734375 21.13671875 C-40.60921502 13.58027695 -36.66472368 6.97926624 -31 2 C-21.52317282 -4.01906591 -10.17734993 -5.17119402 0 0 Z M-25 12 C-25.41542862 15.88814492 -25.41542862 15.88814492 -23.46875 17.921875 C-22.8190625 18.52515625 -22.169375 19.1284375 -21.5 19.75 C-20.8503125 20.36359375 -20.200625 20.9771875 -19.53125 21.609375 C-19.0259375 22.06828125 -18.520625 22.5271875 -18 23 C-19.92287034 27.29378813 -22.62478869 29.77153701 -26 33 C-25.67 33.99 -25.34 34.98 -25 36 C-20.70761377 34.34908222 -18.1206085 31.26245434 -15 28 C-10.70761377 29.65091778 -8.1206085 32.73754566 -5 36 C-4.01 35.67 -3.02 35.34 -2 35 C-3.65091778 30.70761377 -6.73754566 28.1206085 -10 25 C-8.34908222 20.70761377 -5.26245434 18.1206085 -2 15 C-2.33 14.01 -2.66 13.02 -3 12 C-7.29238623 13.65091778 -9.8793915 16.73754566 -13 20 C-16.74366186 18.56013005 -18.9693114 16.12649698 -21.6328125 13.2421875 C-22.93884003 11.77584591 -22.93884003 11.77584591 -25 12 Z " fill="#FA5252" transform="translate(53,15)"/>
</svg>
