<?xml version="1.0" encoding="UTF-8"?>
<svg version="1.1" xmlns="http://www.w3.org/2000/svg" width="512" height="512">
<path d="M0 0 C1.58969176 -0.00679667 1.58969176 -0.00679667 3.2114985 -0.01373065 C6.7626457 -0.02639067 10.31363985 -0.02475321 13.86480713 -0.02310181 C16.41101275 -0.02908607 18.95721656 -0.03589138 21.50341797 -0.04345703 C27.70230683 -0.05929884 33.90113964 -0.06556591 40.10004684 -0.06668179 C45.14082296 -0.06763306 50.18158655 -0.07174729 55.2223587 -0.07808304 C69.52401692 -0.09569206 83.82564516 -0.10492254 98.1273143 -0.10342209 C98.8979135 -0.10334218 99.66851269 -0.10326227 100.46246338 -0.10317993 C101.61977897 -0.10305729 101.61977897 -0.10305729 102.80047467 -0.10293217 C115.29965156 -0.10211956 127.79870785 -0.12125169 140.29784986 -0.14945666 C153.14181764 -0.17821027 165.98572665 -0.19199557 178.82972741 -0.19026911 C186.03664001 -0.18960602 193.24342621 -0.19506259 200.45030975 -0.21662521 C207.23012286 -0.23678051 214.0096252 -0.23613805 220.78946686 -0.22159195 C223.27506398 -0.21950159 225.76067776 -0.22421817 228.24624634 -0.23631287 C231.64527102 -0.25177851 235.0433775 -0.2424473 238.44238281 -0.22705078 C239.91002095 -0.24248147 239.91002095 -0.24248147 241.40730834 -0.25822389 C250.25498616 -0.16995192 258.31538838 2.29604482 264.87750244 8.43930054 C272.16059201 16.77300694 274.86516987 25.3471125 274.47515869 36.26742554 C275.15320557 36.22101929 275.83125244 36.17461304 276.52984619 36.12680054 C286.04413204 35.75782546 292.87646982 37.84097545 300.28765869 43.89242554 C306.17095246 49.45291911 310.28674238 56.87118252 310.57281494 65.06430054 C310.5554126 66.52609741 310.5554126 66.52609741 310.53765869 68.01742554 C310.52863525 69.00226929 310.51961182 69.98711304 310.51031494 71.00180054 C310.4929126 72.12328491 310.4929126 72.12328491 310.47515869 73.26742554 C311.58890869 73.20555054 312.70265869 73.14367554 313.85015869 73.07992554 C323.31251729 73.14667939 330.79258476 76.63596115 337.47515869 83.26742554 C342.66061301 89.65208556 345.71478658 95.84992198 345.74258423 104.2010498 C345.75537918 105.94648071 345.75537918 105.94648071 345.76843262 107.72717285 C345.76752625 108.98971893 345.76661987 110.25226501 345.76568604 111.55307007 C345.77167558 112.90705738 345.7784821 114.26104129 345.78604126 115.61502075 C345.80365758 119.28012479 345.80839457 122.94513537 345.80967283 126.61027765 C345.81109659 128.90087888 345.81537026 131.1914565 345.82066727 133.48205185 C345.83914763 141.47481542 345.8473397 149.4675124 345.84576416 157.46029663 C345.8445608 164.90970314 345.86570612 172.35882085 345.89725149 179.80815423 C345.92338795 186.2082986 345.93413269 192.60834841 345.93285334 199.00854576 C345.93234326 202.8294205 345.93805255 206.65003798 345.95920944 210.47085953 C345.97854978 214.06118711 345.97874579 217.6510107 345.96417618 221.2413559 C345.96108341 223.18717382 345.97779077 225.13299157 345.99505615 227.07873535 C345.98666718 228.23671631 345.9782782 229.39469727 345.96963501 230.58776855 C345.97072454 231.59394793 345.97181408 232.6001273 345.97293663 233.63679695 C345.33383384 237.01429111 344.17864447 238.2009103 341.47515869 240.26742554 C337.72166407 240.73661236 335.43667416 240.79878935 332.10015869 238.95492554 C329.18840941 235.9311859 329.3490294 232.89087146 329.34385681 228.90457153 C329.33784454 227.23493599 329.33784454 227.23493599 329.33171082 225.53157043 C329.33223953 224.30970535 329.33276825 223.08784027 329.33331299 221.82894897 C329.32797956 219.85422606 329.32264015 217.87950315 329.31707633 215.90478086 C329.31187841 213.78089827 329.30896541 211.65702187 329.30649376 209.53313446 C329.30057966 205.10348113 329.2840348 200.67390797 329.26515198 196.24429321 C329.25881457 194.72710805 329.25248895 193.20992284 329.24617481 191.69273758 C329.243009 190.93290904 329.23984319 190.17308049 329.23658144 189.39022684 C329.19452754 179.07831125 329.16153861 168.76643288 329.14923096 158.45443726 C329.14084297 151.49799792 329.11832452 144.54175707 329.07987529 137.58541703 C329.06013806 133.90583057 329.04770216 130.22654066 329.05270958 126.54689789 C329.0582319 122.43881643 329.03291929 118.33147188 329.00518799 114.22348022 C329.0117894 113.00971207 329.01839081 111.79594391 329.02519226 110.5453949 C328.95160836 103.90938161 328.49954049 99.63742553 324.47515869 94.26742554 C322.64305478 92.68900114 322.64305478 92.68900114 320.60015869 91.89242554 C319.96336182 91.59594116 319.32656494 91.29945679 318.67047119 90.99398804 C315.89286631 90.01225153 315.89286631 90.01225153 310.47515869 89.26742554 C310.47515869 181.00742554 310.47515869 272.74742554 310.47515869 367.26742554 C316.74515869 367.26742554 323.01515869 367.26742554 329.47515869 367.26742554 C329.45944824 364.20372681 329.44373779 361.14002808 329.42755127 357.98348999 C329.37786033 347.86537191 329.34471164 337.74724846 329.31972218 327.62904072 C329.30406083 321.49386965 329.28281369 315.35882352 329.24884033 309.22372437 C329.21626407 303.30392922 329.19830921 297.38425431 329.19052696 291.46437645 C329.18498038 289.20491836 329.17414938 286.94546691 329.15796852 284.68605995 C329.13621766 281.52333944 329.13319084 278.36111691 329.13458252 275.19833374 C329.11840378 273.79463531 329.11840378 273.79463531 329.10189819 272.36257935 C329.12494676 267.52753036 329.25950923 264.1610168 332.47515869 260.26742554 C335.32840306 258.84080335 337.30970418 258.95708686 340.47515869 259.26742554 C343.13511562 260.72960472 343.13511562 260.72960472 345.47515869 263.26742554 C346.21978958 266.2342844 346.14560462 269.13925521 346.10334778 272.18505859 C346.11044217 273.09613636 346.11753655 274.00721413 346.12484592 274.94590032 C346.14248137 278.0061382 346.12429228 281.06511526 346.10626221 284.12533569 C346.11139911 286.31657491 346.11867864 288.50781 346.12794495 290.69903564 C346.14650271 296.65811263 346.13348987 302.61674373 346.11385465 308.57580233 C346.09749066 314.81183184 346.10627849 321.04783259 346.1113739 327.28387451 C346.11589937 337.7636445 346.10010619 348.24326679 346.07208252 358.72299194 C346.04328597 369.49194763 346.03614117 380.26064897 346.05157471 391.02963257 C346.07015928 404.01502073 346.06836994 417.00025003 346.04936028 429.98563766 C346.04249784 434.9399569 346.04351418 439.89418143 346.05090523 444.8484993 C346.05858711 450.69100818 346.04637931 456.53315217 346.01905632 462.37559891 C346.01218952 464.5160921 346.01205613 466.65661947 346.01927185 468.79711151 C346.02800998 471.72777372 346.01193616 474.6573212 345.98982239 477.58789062 C345.99806315 478.42760615 346.00630392 479.26732167 346.01479441 480.13248312 C345.88796725 489.2903362 342.59329064 496.8936802 336.33453369 503.51351929 C328.53231618 510.87317405 321.53898216 512.56806656 310.95031738 512.53485107 C309.89052288 512.53938219 308.83072837 512.5439133 307.73881888 512.54858172 C304.18767168 512.56124175 300.63667753 512.55960429 297.08551025 512.55795288 C294.53930463 512.56393715 291.99310083 512.57074246 289.44689941 512.57830811 C283.24801055 512.59414991 277.04917775 512.60041699 270.85027054 512.60153286 C265.80949443 512.60248413 260.76873083 512.60659836 255.72795868 512.61293411 C241.42630046 512.63054313 227.12467222 512.63977362 212.82300308 512.63827316 C212.05240389 512.63819325 211.28180469 512.63811334 210.487854 512.63803101 C209.33053841 512.63790836 209.33053841 512.63790836 208.14984271 512.63778324 C195.65066583 512.63697064 183.15160953 512.65610277 170.65246752 512.68430774 C157.80849975 512.71306134 144.96459074 512.72684664 132.12058997 512.72512019 C124.91367738 512.7244571 117.70689117 512.72991366 110.50000763 512.75147629 C103.72019452 512.77163159 96.94069218 512.77098912 90.16085052 512.75644302 C87.6752534 512.75435267 85.18963962 512.75906924 82.70407104 512.77116394 C79.30504636 512.78662959 75.90693988 512.77729838 72.50793457 512.76190186 C71.52950915 512.77218898 70.55108372 512.78247611 69.54300904 512.79307497 C60.69533122 512.70480299 52.63492901 510.23880626 46.07281494 504.09555054 C38.51221493 495.44430162 36.00418373 486.57082462 36.47515869 475.26742554 C35.19640869 475.34992554 33.91765869 475.43242554 32.60015869 475.51742554 C24.60808575 475.49233269 17.47284195 472.03885244 11.29547119 467.09945679 C4.87965947 460.64234156 1.40651723 452.37547138 1.35015869 443.32992554 C1.381815 441.97548789 1.41990643 440.62110595 1.47515869 439.26742554 C-0.44296631 439.36023804 -0.44296631 439.36023804 -2.39984131 439.45492554 C-12.10683995 439.39406661 -19.63798036 436.10161451 -26.52484131 429.26742554 C-31.99801531 422.5285068 -34.771575 416.26087671 -34.78211021 407.48191452 C-34.78561629 406.82121006 -34.78912236 406.16050559 -34.79273468 405.47977978 C-34.80203075 403.26818379 -34.79713009 401.05685217 -34.79226685 398.84524536 C-34.79600402 397.24264444 -34.80060581 395.64004533 -34.80599749 394.03744912 C-34.81823472 389.63507823 -34.81796617 385.23278329 -34.81560874 380.83039927 C-34.81520075 376.08179092 -34.826238 371.33320698 -34.83572388 366.58460999 C-34.85233899 357.28154241 -34.85783366 347.97850017 -34.85894863 338.675419 C-34.8598989 331.11319121 -34.86400811 323.55097179 -34.87034988 315.98874664 C-34.88796395 294.54854937 -34.89718854 273.10837212 -34.89568894 251.66816756 C-34.89560902 250.51224594 -34.89552911 249.35632431 -34.89544678 248.16537476 C-34.89536502 247.00804172 -34.89528325 245.85070869 -34.89519902 244.65830496 C-34.89438614 225.90278104 -34.91352368 207.14733743 -34.94172351 188.39183673 C-34.97045026 169.13392143 -34.98426391 149.87604531 -34.98253596 130.61810803 C-34.98187197 119.80622037 -34.98736818 108.99441689 -35.00889206 98.18254852 C-35.02710111 88.97676542 -35.03145345 79.77110466 -35.01787321 70.56531134 C-35.0113421 65.86937722 -35.01123155 61.17367784 -35.02857971 56.47776604 C-35.04430917 52.17572198 -35.04144814 47.87409881 -35.02401145 43.57206503 C-35.02094127 42.018912 -35.02457466 40.46572756 -35.0357316 38.91261157 C-35.11500649 27.09048939 -33.72474545 17.8430453 -25.38421631 9.02133179 C-17.58199879 1.66167703 -10.58866478 -0.03321549 0 0 Z M-13.68109131 20.02133179 C-14.12452881 20.61816772 -14.56796631 21.21500366 -15.02484131 21.82992554 C-15.48890381 22.4293396 -15.95296631 23.02875366 -16.43109131 23.64633179 C-18.36388697 26.51101108 -18.64949264 28.26147662 -18.64788914 31.68335915 C-18.64988019 32.61740786 -18.65187123 33.55145658 -18.65392262 34.5138098 C-18.65100978 35.54686731 -18.64809693 36.57992482 -18.64509583 37.64428711 C-18.64595025 38.73630444 -18.64680467 39.82832177 -18.64768499 40.95343053 C-18.64934087 44.63705068 -18.64381664 48.32062595 -18.6383667 52.00424194 C-18.63808482 54.63504536 -18.63824257 57.26584885 -18.6388092 59.89665222 C-18.63933432 65.57317195 -18.63618876 71.24968021 -18.63057137 76.92619705 C-18.62245476 85.13355271 -18.61984098 93.34090281 -18.61858337 101.54826204 C-18.61639311 114.86318167 -18.60973371 128.17809517 -18.60028076 141.49301147 C-18.59110599 154.4295346 -18.58402547 167.36605607 -18.57977295 180.30258179 C-18.57951023 181.09958416 -18.5792475 181.89658653 -18.57897682 182.71774049 C-18.57767181 186.71594624 -18.57640809 190.71415199 -18.57516491 194.71235776 C-18.56479309 227.8973848 -18.54717546 261.08240435 -18.52484131 294.26742554 C-17.55493397 294.27100807 -17.55493397 294.27100807 -16.56543255 294.27466297 C-0.8419041 294.33376423 14.88144641 294.40928273 30.60480213 294.50314045 C38.20846485 294.54813201 45.81208037 294.5875388 53.41583252 294.61386108 C60.04222429 294.63681409 66.66846713 294.6701816 73.29474086 294.7161271 C76.80427725 294.74009603 80.31366582 294.75880061 83.82328224 294.76503944 C87.73841187 294.77219406 91.65317044 294.80259702 95.56817627 294.83505249 C96.7355835 294.8336174 97.90299072 294.83218231 99.10577393 294.83070374 C100.17008133 294.84324188 101.23438873 294.85578003 102.33094788 294.86869812 C103.25734982 294.87330709 104.18375177 294.87791605 105.13822651 294.88266468 C107.47515869 295.26742554 107.47515869 295.26742554 109.27714062 296.573596 C111.2591085 299.37582061 110.77083127 301.95589262 110.47515869 305.26742554 C108.47515869 308.26742554 108.47515869 308.26742554 105.47515869 309.26742554 C103.78795643 309.36889429 102.09708396 309.41368087 100.40687561 309.42564392 C99.35939651 309.43543274 98.31191742 309.44522156 97.23269653 309.45530701 C96.08399078 309.46106247 94.93528503 309.46681793 93.75177002 309.4727478 C92.54188919 309.4826474 91.33200836 309.492547 90.08546448 309.50274658 C86.76757138 309.52894006 83.44970242 309.55079974 80.13176942 309.57074857 C76.66439363 309.59261538 73.19706157 309.62000067 69.72972107 309.64680481 C63.16372457 309.69672229 56.59770378 309.74166462 50.03165978 309.78482717 C42.556492 309.83420762 35.08136811 309.88912275 27.60624278 309.94450676 C12.2292553 310.05831231 -3.14777253 310.16515446 -18.52484131 310.26742554 C-18.61757395 323.31523388 -18.6886232 336.36296365 -18.73209 349.41103458 C-18.75295324 355.46997287 -18.78124845 361.52868548 -18.82659912 367.5874939 C-18.87010097 373.43598584 -18.89398792 379.28426088 -18.90435028 385.13290215 C-18.91173378 387.3628118 -18.92615204 389.59270976 -18.94776154 391.82252693 C-18.97685245 394.9490322 -18.98079483 398.07464431 -18.97894287 401.20126343 C-19.00051453 402.58014992 -19.00051453 402.58014992 -19.02252197 403.9868927 C-18.98448562 409.93205773 -18.00797972 413.40541584 -14.52484131 418.26742554 C-10.18131876 421.63587159 -6.74182015 423.38869287 -1.25529099 423.40164661 C-0.37930244 423.40610446 0.4966861 423.4105623 1.39921975 423.41515523 C2.36233441 423.41497087 3.32544907 423.41478651 4.31774902 423.41459656 C5.34034498 423.41827325 6.36294094 423.42194993 7.41652465 423.42573804 C10.85957695 423.43679346 14.30259909 423.44062186 17.7456665 423.44442749 C20.20762732 423.45069069 22.66958719 423.45733736 25.13154602 423.46434021 C32.53120756 423.48358003 39.93086109 423.49416991 47.3305403 423.503068 C50.81532927 423.50745158 54.30011671 423.51281819 57.78490448 423.51805687 C69.36922515 423.53506822 80.95354488 423.54956256 92.53787613 423.55680561 C95.5438258 423.5587155 98.54977546 423.56063583 101.5557251 423.56259155 C102.67639254 423.56331716 102.67639254 423.56331716 103.81969973 423.56405743 C115.92339816 423.57235839 128.02699778 423.5976968 140.13065305 423.63017223 C152.55753019 423.66324306 164.98435711 423.68125437 177.41127849 423.68444985 C184.38843714 423.68661488 191.36545168 423.69536236 198.34256744 423.72091103 C204.90560646 423.74488798 211.46843268 423.74844356 218.03152275 423.73814964 C220.44097951 423.73765306 222.85044884 423.74400942 225.25986671 423.75770569 C228.54843523 423.77535422 231.83606518 423.76835232 235.12463379 423.75517273 C236.07882556 423.76614198 237.03301733 423.77711122 238.01612401 423.78841287 C244.03176145 423.73017911 247.53964577 422.76101485 252.47515869 419.26742554 C258.27986409 413.14895228 258.766095 407.67691916 258.70220947 399.61190796 C258.70264755 398.16240753 258.70264755 398.16240753 258.70309448 396.68362427 C258.70170361 393.49662223 258.68615367 390.30985537 258.67047119 387.12289429 C258.6667402 384.91043729 258.66389364 382.69797865 258.66189575 380.48551941 C258.65426608 374.66745426 258.63462321 368.84948925 258.61248779 363.03146362 C258.59201508 357.09255325 258.58289098 351.15362667 258.57281494 345.21469116 C258.55137677 333.56555867 258.51724878 321.91650044 258.47515869 310.26742554 C257.85009052 310.26411539 257.22502235 310.26080524 256.58101273 310.25739479 C241.37456931 310.17618878 226.16823408 310.08410426 210.96193314 309.97989845 C203.60828992 309.92976796 196.25465787 309.88332511 188.90093994 309.84555054 C182.49174365 309.81261844 176.08263394 309.77278053 169.6735332 309.72463548 C166.27968643 309.69938252 162.885897 309.67759775 159.49198151 309.66408157 C155.70402034 309.64726079 151.91633837 309.61823521 148.128479 309.58627319 C147.00207001 309.58411301 145.87566101 309.58195282 144.71511841 309.57972717 C143.16708023 309.56298195 143.16708023 309.56298195 141.58776855 309.54589844 C140.69178577 309.54036768 139.79580299 309.53483692 138.87266922 309.52913857 C136.28497876 309.24666543 134.66492647 308.65895156 132.47515869 307.26742554 C130.95023871 304.21758558 131.23953321 301.62508864 131.47515869 298.26742554 C132.674016 296.56968975 132.674016 296.56968975 134.47515869 295.26742554 C136.78085613 294.88266468 136.78085613 294.88266468 139.54344177 294.86869812 C141.11466042 294.8498909 141.11466042 294.8498909 142.71762085 294.83070374 C144.44067947 294.83285637 144.44067947 294.83285637 146.19854736 294.83505249 C147.40842819 294.82486084 148.61830902 294.81466919 149.86485291 294.8041687 C153.18288012 294.77912961 156.50046444 294.76730872 159.81854796 294.76131463 C163.2859667 294.75194177 166.75325686 294.72573934 170.22059631 294.7013092 C176.78659129 294.65761038 183.35256137 294.62908429 189.9186576 294.60598582 C197.39387035 294.5789522 204.86895398 294.53503963 212.34407461 294.4896971 C227.7210363 294.39680244 243.0980223 294.32514388 258.47515869 294.26742554 C258.54382676 260.7545506 258.59668846 227.24169316 258.62835468 193.72876349 C258.6321068 189.7721683 258.63598976 185.81557325 258.63995361 181.85897827 C258.64074054 181.07129214 258.64152748 180.28360602 258.64233825 179.47205061 C258.65539182 166.71830133 258.6790454 153.96459262 258.70661708 141.2108674 C258.73467264 128.12416252 258.75133527 115.03747889 258.75742418 101.95074517 C258.76154031 93.87566159 258.77454035 85.80069269 258.79890809 77.72564442 C258.81664203 71.53346124 258.81852392 65.34136548 258.81448174 59.14916039 C258.81530792 56.60909061 258.82128662 54.06901655 258.83277512 51.52897263 C258.84768408 48.06304416 258.84411766 44.59760776 258.83592224 41.13166809 C258.84466077 40.12484763 258.85339929 39.11802717 258.86240262 38.080697 C258.81704572 30.99178466 257.77578646 26.24470854 253.35015869 20.51742554 C246.75322698 15.35460941 239.3129213 14.8271986 231.19024658 14.88647461 C229.69365682 14.87945465 229.69365682 14.87945465 228.16683292 14.87229288 C224.84368929 14.86038436 221.5209612 14.86978406 218.19781494 14.87924194 C215.80717733 14.87517441 213.4165416 14.86983152 211.02590942 14.86331177 C205.21876902 14.85107082 199.41175932 14.85283687 193.60461497 14.86154969 C188.8828338 14.86833931 184.1610852 14.86923745 179.43930054 14.86597824 C178.76593031 14.86551854 178.09256008 14.86505884 177.3987847 14.86458521 C176.03062208 14.86362599 174.66245946 14.86265335 173.29429686 14.86166744 C160.48079813 14.85312353 147.66736391 14.86293195 134.85387576 14.87906854 C123.87181018 14.89247082 112.88983974 14.89014245 101.90777588 14.87631226 C89.13848906 14.86023874 76.36925871 14.85394741 63.59996319 14.86314905 C62.23698108 14.86410464 60.87399897 14.86504775 59.51101685 14.86597824 C58.84049524 14.86644107 58.16997363 14.86690389 57.47913319 14.86738075 C52.76589062 14.86996533 48.05268402 14.86561114 43.33944702 14.85853958 C36.98971164 14.84986267 30.64015564 14.85590536 24.29043961 14.87322235 C21.96245751 14.87718328 19.63446026 14.87605992 17.30648422 14.86943436 C14.12414378 14.86121344 10.94237501 14.87154758 7.7600708 14.88647461 C6.84303407 14.87978244 5.92599733 14.87309028 4.98117161 14.86619532 C-1.64596128 14.92631895 -8.38919196 15.71687018 -13.68109131 20.02133179 Z M274.47515869 52.26742554 C274.47515869 144.00742554 274.47515869 235.74742554 274.47515869 330.26742554 C281.07515869 330.26742554 287.67515869 330.26742554 294.47515869 330.26742554 C294.58924254 296.51680393 294.67771777 262.7662359 294.73048534 229.01546428 C294.73673881 225.03011511 294.74321043 221.04476632 294.74981689 217.05941772 C294.75112845 216.26601268 294.75244 215.47260763 294.75379129 214.65516001 C294.77554283 201.81151699 294.81496294 188.96798597 294.86092267 176.12440938 C294.90769438 162.9439131 294.93545559 149.76347543 294.94560117 136.58289957 C294.95245887 128.45091837 294.97411136 120.31925374 295.01474103 112.18737 C295.04431655 105.94987686 295.04743101 99.71262464 295.0406971 93.47507095 C295.04207319 90.91767045 295.05202606 88.36025802 295.07118607 85.80292892 C295.0960675 82.31079527 295.09008008 78.8200154 295.07643127 75.32785034 C295.09099548 74.31616083 295.10555969 73.30447131 295.12056524 72.26212454 C295.05184777 65.75630462 293.80159896 61.24216573 289.47515869 56.26742554 C284.59085583 52.05724635 281.19120061 52.26742554 274.47515869 52.26742554 Z M274.47515869 346.26742554 C274.46114014 349.07343262 274.46114014 349.07343262 274.44683838 351.93612671 C274.41109433 358.16680601 274.35716131 364.39712822 274.29125595 370.62755871 C274.2520059 374.39937586 274.21970894 378.17096741 274.2041626 381.94296265 C274.18884567 385.59373291 274.1541416 389.24388195 274.10684967 392.89437294 C274.09218872 394.27632511 274.08412662 395.65836606 274.08327484 397.04039574 C274.0680055 409.41032508 272.77456669 421.21334697 263.76422119 430.39242554 C257.90170969 435.19448274 251.02220568 438.37699562 243.39097214 438.40609074 C242.58182696 438.41156518 241.77268178 438.41703962 240.93901706 438.42267996 C240.05575032 438.42365807 239.17248357 438.42463617 238.26245117 438.42564392 C236.84849906 438.43305089 236.84849906 438.43305089 235.40598226 438.44060749 C232.23991526 438.45599451 229.07386856 438.46434641 225.90777588 438.4727478 C223.64120301 438.48232538 221.37463194 438.49233538 219.10806274 438.50274658 C212.9473505 438.52981478 206.78663059 438.550814 200.62589169 438.57074857 C194.19031814 438.59259629 187.7547683 438.61999092 181.31921387 438.64680481 C170.51508574 438.69106998 159.71095038 438.73190247 148.90679932 438.77011108 C137.77853445 438.80947531 126.65028042 438.85090376 115.52203369 438.89511108 C114.8360756 438.89783536 114.15011751 438.90055963 113.44337282 438.90336645 C110.00211883 438.91704609 106.56086501 438.93076633 103.11961126 438.94450676 C74.57148313 439.05844283 46.02333097 439.16518548 17.47515869 439.26742554 C17.32095751 446.13343613 18.31210547 449.7628376 22.85015869 455.01742554 C28.38826911 459.76437732 33.60642501 459.55913849 40.5894928 459.5415802 C41.61717559 459.54681688 42.64485838 459.55205356 43.70368308 459.55744892 C47.15204295 459.57246725 50.60025467 459.57315449 54.04864502 459.57382202 C56.51913199 459.58144224 58.98961658 459.5898695 61.46009827 459.5990448 C68.17501206 459.62100966 74.88986617 459.62981312 81.60480714 459.63487124 C85.79917702 459.63813033 89.99353775 459.64465405 94.18790245 459.65187263 C105.80575801 459.67143528 117.42360507 459.68784168 129.04147816 459.69074917 C129.78462809 459.69093674 130.52777803 459.69112431 131.29344765 459.69131756 C132.7999237 459.69168381 134.30639974 459.69204751 135.81287578 459.69240867 C136.93456691 459.69268289 136.93456691 459.69268289 138.07891846 459.69296265 C138.82762739 459.6931432 139.57633632 459.69332374 140.3477334 459.69350976 C152.47976084 459.6970515 164.6116108 459.72407524 176.74357668 459.76146054 C189.20555987 459.79955489 201.66745501 459.81890672 214.12949771 459.81920868 C221.12401125 459.81979297 228.11831301 459.8282664 235.11277199 459.85720634 C241.6914768 459.88430141 248.26983543 459.8856155 254.84860039 459.8695507 C257.26247699 459.86773288 259.67637749 459.87445684 262.09020233 459.89036942 C265.38725749 459.91077854 268.6828375 459.90030687 271.97987366 459.88215637 C272.9336793 459.89535634 273.88748494 459.90855631 274.87019378 459.92215627 C281.23034677 459.84225888 285.58911645 458.43254416 290.47515869 454.26742554 C294.92001254 449.042226 295.03322252 443.8466579 294.92926025 437.20126343 C294.92984436 436.21513062 294.93042847 435.2289978 294.93103027 434.21298218 C294.92825601 430.97165033 294.89719436 427.73125189 294.86578369 424.49008179 C294.85831898 422.23564659 294.85262714 419.98120488 294.84863281 417.72676086 C294.83339472 411.80666034 294.79412816 405.88695528 294.74981689 399.9670105 C294.70882509 393.92071888 294.69061342 387.87436307 294.67047119 381.82797241 C294.62763243 369.9742555 294.55729703 358.12093535 294.47515869 346.26742554 C287.87515869 346.26742554 281.27515869 346.26742554 274.47515869 346.26742554 Z M310.47515869 383.26742554 C310.46057617 385.21963013 310.44599365 387.17183472 310.43096924 389.18319702 C310.37914867 395.6613232 310.31381791 402.13920523 310.23944378 408.61711025 C310.19487505 412.5414617 310.15559004 416.46571255 310.12872314 420.39022827 C310.10255434 424.18353582 310.06205838 427.97645344 310.01197243 431.7695179 C309.99539484 433.21060365 309.9838242 434.6517567 309.97754478 436.09292412 C309.91734128 448.64942545 308.48741879 458.00332584 299.47515869 467.26742554 C291.93874399 473.3528213 284.24128138 474.56654485 274.82575989 474.54589844 C273.87239477 474.55169084 272.91902964 474.55748324 271.93677467 474.56345117 C268.7523505 474.58041348 265.5680716 474.58332445 262.38360596 474.58627319 C260.09688463 474.59557396 257.81016668 474.60574285 255.52345276 474.61671448 C249.32159292 474.64401173 243.1197558 474.65916315 236.91785169 474.67214251 C230.43423689 474.68777417 223.95066847 474.71456431 217.46708679 474.74017334 C206.58673453 474.78164487 195.70638033 474.81623947 184.82598877 474.84555054 C173.62121762 474.87575435 162.41647185 474.91011301 151.21173096 474.95004272 C150.52058705 474.95250427 149.82944314 474.95496582 149.11735547 474.95750196 C145.64994514 474.96987692 142.1825351 474.98233338 138.7151252 474.99483037 C109.96850597 475.09833145 81.22185252 475.18740982 52.47515869 475.26742554 C52.31965438 482.1259842 53.34053239 486.50496797 57.60015869 492.01742554 C64.19709041 497.18024166 71.63739608 497.70765248 79.7600708 497.64837646 C81.25666056 497.65539642 81.25666056 497.65539642 82.78348446 497.6625582 C86.10662809 497.67446671 89.42935618 497.66506702 92.75250244 497.65560913 C95.14314005 497.65967666 97.53377578 497.66501956 99.92440796 497.67153931 C105.73154837 497.68378025 111.53855807 497.6820142 117.34570241 497.67330138 C122.06748358 497.66651176 126.78923218 497.66561363 131.51101685 497.66887283 C132.18438707 497.66933253 132.8577573 497.66979223 133.55153269 497.67026586 C134.91969531 497.67122509 136.28785792 497.67219773 137.65602052 497.67318363 C150.46951925 497.68172754 163.28295348 497.67191912 176.09644163 497.65578254 C187.07850721 497.64238025 198.06047764 497.64470862 209.0425415 497.65853882 C221.81182832 497.67461233 234.58105867 497.68090366 247.35035419 497.67170203 C248.7133363 497.67074643 250.07631841 497.66980332 251.43930054 497.66887283 C252.10982214 497.66841001 252.78034375 497.66794718 253.47118419 497.66747033 C258.18442676 497.66488575 262.89763336 497.66923993 267.61087036 497.67631149 C273.96060574 497.68498841 280.31016174 497.67894571 286.65987778 497.66162872 C288.98785988 497.6576678 291.31585712 497.65879115 293.64383316 497.66541672 C296.8261736 497.67363763 300.00794237 497.6633035 303.19024658 497.64837646 C304.10728332 497.65506863 305.02432005 497.6617608 305.96914577 497.66865575 C312.59627866 497.60853213 319.33950935 496.81798089 324.63140869 492.51351929 C325.07484619 491.91668335 325.51828369 491.31984741 325.97515869 490.70492554 C326.67125244 489.80580444 326.67125244 489.80580444 327.38140869 488.88851929 C329.24447685 486.12718612 329.59945906 484.44792853 329.59541321 481.15460205 C329.59678787 480.29360901 329.59816254 479.43261597 329.59957886 478.54553223 C329.59598358 477.59894745 329.59238831 476.65236267 329.58868408 475.67709351 C329.58890312 474.18435913 329.58890312 474.18435913 329.58912659 472.66146851 C329.58842801 469.3608281 329.58063813 466.06024362 329.57281494 462.75961304 C329.57095057 460.4756066 329.56952676 458.19159976 329.56852722 455.90759277 C329.56470356 449.88730776 329.55487455 443.86704675 329.54382324 437.84677124 C329.53360588 431.70704473 329.5290289 425.56731435 329.52398682 419.42758179 C329.51325217 407.37418411 329.49565657 395.32081057 329.47515869 383.26742554 C323.20515869 383.26742554 316.93515869 383.26742554 310.47515869 383.26742554 Z " fill="#000000" transform="translate(100.52484130859375,-0.267425537109375)"/>
<path d="M0 0 C0.75667969 -0.04898438 1.51335937 -0.09796875 2.29296875 -0.1484375 C5.95394827 0.61213809 8.31060813 2.70985793 10.8125 5.375 C12.10408037 7.84925851 13.07163874 10.02406904 13.984375 12.625 C14.26020416 13.3622229 14.53603333 14.0994458 14.82022095 14.85900879 C15.75107634 17.35847402 16.65620965 19.86653346 17.5625 22.375 C18.23196802 24.18495564 18.90342503 25.99417658 19.57666016 27.80273438 C21.10934617 31.92555408 22.63258804 36.05172561 24.15136719 40.1796875 C27.15832708 48.33241078 30.22160625 56.46364581 33.2890625 64.59375 C33.57171967 65.34293701 33.85437683 66.09212402 34.14559937 66.86401367 C35.29795214 69.91799169 36.45045481 72.97191302 37.60332489 76.0256958 C39.57242837 81.24224147 41.53695263 86.46049305 43.49902344 91.6796875 C44.30527571 93.82335487 45.11162269 95.96698657 45.91802979 98.1105957 C46.4442793 99.50976885 46.97032285 100.90901948 47.49615479 102.30834961 C50.22423599 109.56640206 52.97194275 116.81542491 55.79003906 124.0390625 C56.25487701 125.23358032 56.71971497 126.42809814 57.19863892 127.65881348 C58.06447369 129.87758039 58.93520517 132.0944455 59.81185913 134.30895996 C63.52719045 143.8280478 63.52719045 143.8280478 63.8125 148.375 C62.20838152 151.90406067 61.07090638 153.20272908 57.8125 155.375 C54.375 155.3125 54.375 155.3125 50.8125 154.375 C43.53928001 145.28347501 40.85622297 133.29305203 36.8125 122.375 C12.7225 122.045 -11.3675 121.715 -36.1875 121.375 C-37.1775 124.675 -38.1675 127.975 -39.1875 131.375 C-40.55773608 135.25374749 -42.08538953 139.06067289 -43.625 142.875 C-44.00720703 143.86242187 -44.38941406 144.84984375 -44.78320312 145.8671875 C-45.35264648 147.27871094 -45.35264648 147.27871094 -45.93359375 148.71875 C-46.43910767 149.99008789 -46.43910767 149.99008789 -46.95483398 151.28710938 C-48.42988564 153.78555298 -49.45811408 154.46083017 -52.1875 155.375 C-55.53955511 155.19857605 -58.16141301 154.93769287 -61.125 153.3125 C-63.28091183 149.38113137 -62.62692259 144.96373948 -61.47354126 140.79367065 C-60.41892169 137.78022127 -59.28304501 134.81051515 -58.11328125 131.83984375 C-57.68179779 130.71263412 -57.25031433 129.5854245 -56.80575562 128.42405701 C-55.628113 125.35462653 -54.43890663 122.28999216 -53.24453354 119.22704315 C-51.99075477 116.00299289 -50.75248001 112.77300193 -49.51293945 109.54345703 C-47.44957784 104.17223328 -45.37825589 98.80414608 -43.30175781 93.43798828 C-38.89778368 82.05323102 -34.55419379 70.64550188 -30.20614624 59.23928833 C-28.91664151 55.85915347 -27.62450015 52.48004046 -26.33129883 49.10131836 C-25.7206382 47.50437386 -25.7206382 47.50437386 -25.09764099 45.87516785 C-24.29965102 43.78996039 -23.5001767 41.70532028 -22.69911194 39.62129211 C-20.66424865 34.3120529 -18.67881279 28.99015955 -16.76025391 23.63769531 C-16.16432182 21.99349106 -16.16432182 21.99349106 -15.55635071 20.31607056 C-14.80365659 18.23352554 -14.06202998 16.14693354 -13.33366394 14.05575562 C-11.36864689 8.6464917 -9.65832865 5.05362003 -5.1875 1.375 C-3.63766739 -0.17483261 -2.15081622 0.09367039 0 0 Z M-0.1875 26.375 C-0.38635803 26.89498062 -0.58521606 27.41496124 -0.7901001 27.95069885 C-3.33828555 34.61332873 -5.88771491 41.27548216 -8.4375 47.9375 C-8.84434021 49.00067444 -9.25118042 50.06384888 -9.67034912 51.15924072 C-13.7812905 61.90057548 -17.89352488 72.64128147 -22.0546875 83.36328125 C-22.33916748 84.09642044 -22.62364746 84.82955963 -22.91674805 85.58491516 C-24.21934773 88.93995873 -25.52457255 92.29395664 -26.83300781 95.64672852 C-27.28256836 96.80229248 -27.73212891 97.95785645 -28.1953125 99.1484375 C-28.77756592 100.63996338 -28.77756592 100.63996338 -29.37158203 102.16162109 C-30.24514634 104.13821723 -30.24514634 104.13821723 -30.1875 105.375 C-10.0575 105.375 10.0725 105.375 30.8125 105.375 C28.40732409 98.13099608 28.40732409 98.13099608 25.83886719 90.95727539 C25.48129333 89.99499527 25.12371948 89.03271515 24.75531006 88.04127502 C24.37715149 87.02863083 23.99899292 86.01598663 23.609375 84.97265625 C23.00805756 83.35779579 23.00805756 83.35779579 22.39459229 81.71031189 C21.54815702 79.43834846 20.70095477 77.16667063 19.85302734 74.89526367 C18.57828364 71.47978976 17.30653167 68.06321331 16.03515625 64.64648438 C14.01413625 59.22040781 11.9831743 53.79815815 9.94311523 48.37921143 C9.20579778 46.42005021 8.47020062 44.46024045 7.73657227 42.49969482 C6.77441139 39.93314848 5.80300409 37.37033112 4.828125 34.80859375 C4.40874664 33.68373314 4.40874664 33.68373314 3.980896 32.53614807 C2.75185282 28.75490048 2.75185282 28.75490048 -0.1875 26.375 Z " fill="#000000" transform="translate(168.1875,76.625)"/>
<path d="M0 0 C2.00436509 1.79848282 2.89186226 3.25224745 3.27928162 5.93118095 C3.40657251 8.44611041 3.42809 10.94446316 3.41992188 13.46264648 C3.42839142 14.42080261 3.43686096 15.37895874 3.44558716 16.3661499 C3.46899322 19.5345994 3.46997846 22.70256432 3.46875 25.87109375 C3.47584927 28.07300512 3.48354792 30.27491463 3.49182129 32.4768219 C3.50527433 37.09275454 3.50683107 41.70851612 3.50097656 46.32446289 C3.4950791 52.24083501 3.52567081 58.15638693 3.56609344 64.07260036 C3.59193743 68.62022833 3.59485084 73.16765792 3.59120178 77.7153492 C3.59289605 79.89665857 3.60256789 82.07797682 3.62034607 84.2592144 C3.64247046 87.3093551 3.63286651 90.35782422 3.61523438 93.40795898 C3.62849762 94.30942154 3.64176086 95.21088409 3.65542603 96.1396637 C3.59602222 100.56015035 3.42623763 102.43598669 0.6842041 106.06434631 C-2 108 -2 108 -5.5625 108.5625 C-9.61364334 107.89958564 -10.53671334 107.20910054 -13 104 C-13.609375 100.765625 -13.609375 100.765625 -13.75 97.25 C-13.80671875 96.07953125 -13.8634375 94.9090625 -13.921875 93.703125 C-13.94765625 92.81109375 -13.9734375 91.9190625 -14 91 C-14.87398437 91.68835938 -14.87398437 91.68835938 -15.765625 92.390625 C-26.76887512 100.62576188 -39.61088752 104.4774054 -53.37890625 102.69140625 C-63.90302208 100.83033412 -71.96183238 97.03151859 -80 90 C-80.92619141 89.24976563 -80.92619141 89.24976563 -81.87109375 88.484375 C-90.6193544 80.76875982 -95.41224589 68.40270691 -96.2109375 56.984375 C-96.68502143 41.59488111 -91.84574569 28.33692958 -81.265625 17.0703125 C-70.25544633 7.00928716 -57.63195519 3.44489482 -42.9921875 3.71875 C-32.77415928 4.21166019 -21.09579077 8.39736704 -14 16 C-13.97421875 15.10796875 -13.9484375 14.2159375 -13.921875 13.296875 C-13.83679688 11.54117188 -13.83679688 11.54117188 -13.75 9.75 C-13.70359375 8.58984375 -13.6571875 7.4296875 -13.609375 6.234375 C-12.90257419 2.48289377 -11.9923903 1.29343782 -9 -1 C-5.15941827 -2.28019391 -3.6601592 -1.60131965 0 0 Z M-72 31 C-78.06048646 39.49311791 -80.98607023 47.52887326 -80 58 C-78.27540622 67.57946632 -73.41438055 74.58976683 -65.92578125 80.68359375 C-58.90755382 85.48104333 -51.45867064 87.55466693 -43 87 C-33.44756541 85.13070103 -25.385126 80.57258146 -19.28125 72.92578125 C-13.95532928 64.92066261 -11.72745197 56.13327383 -13.42578125 46.61328125 C-15.88378251 37.00747264 -21.12449335 29.28329064 -29.69140625 24.18359375 C-43.80230078 16.94907422 -61.23666879 18.3372574 -72 31 Z " fill="#000000" transform="translate(325,124)"/>
<path d="M0 0 C0.81080794 -0.00367669 1.62161588 -0.00735338 2.45699376 -0.01114148 C5.18920556 -0.02220417 7.92137936 -0.02602651 10.65361023 -0.02983093 C12.60636008 -0.03609358 14.55910874 -0.0427402 16.51185608 -0.04974365 C21.82801537 -0.06717072 27.14416566 -0.07770985 32.46034646 -0.08594918 C35.77943533 -0.09109523 39.09852138 -0.09717111 42.41760826 -0.10346031 C52.79572295 -0.12251629 63.17383051 -0.13674712 73.55195934 -0.14507228 C85.54409006 -0.15485021 97.53603647 -0.18118258 109.52810222 -0.22157317 C118.78929215 -0.25169889 128.05042915 -0.26653775 137.31166714 -0.26985329 C142.84680071 -0.27220764 148.38173747 -0.28121815 153.91681862 -0.30631447 C159.12313808 -0.32953848 164.32913036 -0.33385128 169.53548813 -0.32355309 C171.44750619 -0.32305625 173.35954005 -0.32942008 175.27150917 -0.34310913 C177.87996897 -0.36074148 180.48724352 -0.35376505 183.09570312 -0.34057617 C183.85407339 -0.35154542 184.61244365 -0.36251466 185.39379483 -0.37381631 C189.01848911 -0.32950468 191.08565217 0.05147037 194.18474102 1.99406147 C196.81818822 4.75513419 197.23832703 6.34975627 197.23832703 10.14717102 C195.10789224 14.71238841 195.10789224 14.71238841 192.23832703 16.14717102 C189.60247119 16.25371658 186.99252578 16.2993831 184.35603333 16.30107117 C183.12038708 16.30764455 183.12038708 16.30764455 181.85977829 16.31435072 C179.08377796 16.32776605 176.30780939 16.33392366 173.53178406 16.34004211 C171.54785518 16.3479408 169.56392774 16.3562096 167.58000183 16.36482239 C161.05206174 16.39106499 154.52411514 16.40635018 147.99613953 16.42060852 C145.75194672 16.42596689 143.50775396 16.43134439 141.26356125 16.43674088 C131.93195464 16.45837102 122.60034978 16.47710978 113.26872444 16.48836327 C99.87807688 16.50461612 86.48771887 16.5378249 73.09718049 16.59476411 C63.69078597 16.63340414 54.2844691 16.65298879 44.87799728 16.65828383 C39.25509781 16.66194484 33.632507 16.67404592 28.00969315 16.70638657 C22.72207283 16.73636345 17.43494963 16.74281618 12.14726257 16.73100281 C10.20417813 16.73078122 8.2610713 16.73915667 6.31806564 16.75665665 C3.66963443 16.77921617 1.02302614 16.77111584 -1.62541199 16.75517273 C-2.39836794 16.76905482 -3.17132389 16.7829369 -3.96770275 16.79723966 C-7.7874698 16.74039327 -9.42095484 16.46991674 -12.23893929 13.80057716 C-14.10086956 10.55611146 -14.38856622 8.83016886 -13.76167297 5.14717102 C-9.62966079 0.05102267 -6.22347299 -0.00149971 0 0 Z " fill="#000000" transform="translate(131.7616729736328,376.8528289794922)"/>
<path d="M0 0 C0.79409775 -0.00554901 1.5881955 -0.01109802 2.40635681 -0.01681519 C5.02274532 -0.02859517 7.63739561 -0.00435674 10.25366211 0.02148438 C12.07539287 0.02319584 13.8971261 0.02312943 15.71885681 0.0213623 C19.53286364 0.02301454 23.34628197 0.04169631 27.16015625 0.07324219 C32.04852516 0.11294778 36.93612447 0.11728362 41.82462406 0.10977936 C45.58474273 0.10670999 49.3446884 0.11882853 53.10476494 0.13591003 C54.90728101 0.14293977 56.70981669 0.1460646 58.51234627 0.1452179 C61.03072689 0.14701574 63.54818514 0.16839472 66.06640625 0.1953125 C66.81093048 0.1923819 67.55545471 0.18945129 68.32254028 0.18643188 C71.42633374 0.23761715 73.6501256 0.44327604 76.40379333 1.93054199 C78.9120467 4.63112454 78.90642254 7.01440196 78.96850586 10.61523438 C77.62288187 13.56279169 76.88296042 15.1580071 73.96850586 16.61523438 C71.40177069 16.73422014 68.86130737 16.79355353 66.29345703 16.80810547 C65.50140366 16.81628296 64.70935028 16.82446045 63.89329529 16.83288574 C61.26602946 16.85774555 58.63881767 16.87425703 56.01147461 16.88867188 C55.1148794 16.89399555 54.21828419 16.89931923 53.29451942 16.90480423 C48.5490568 16.93153812 43.8036205 16.95091241 39.05810547 16.96533203 C34.15508019 16.9819824 29.25272675 17.02676246 24.34995556 17.07770348 C20.58127566 17.11134944 16.81275577 17.12290651 13.04393959 17.12855911 C11.23660458 17.13527874 9.42928036 17.15051932 7.62209129 17.17444992 C5.09141569 17.20604924 2.56255914 17.20614675 0.03173828 17.19873047 C-0.71390381 17.2151358 -1.4595459 17.23154114 -2.2277832 17.2484436 C-6.16166253 17.20128718 -7.8744191 16.73967892 -10.99638367 14.26626587 C-13.03149414 11.61523438 -13.03149414 11.61523438 -13.65649414 8.61523438 C-12.11096941 1.19671566 -6.76541664 -0.12085034 0 0 Z " fill="#000000" transform="translate(250.031494140625,337.384765625)"/>
<path d="M0 0 C1.19114662 -0.01073296 1.19114662 -0.01073296 2.40635681 -0.02168274 C5.02271621 -0.0385472 7.63735678 -0.0191835 10.25366211 0.00219727 C12.07539512 0.00136844 13.89712805 -0.00109148 15.71885681 -0.00511169 C19.53285285 -0.00796803 23.34626108 0.0067167 27.16015625 0.03417969 C32.04864513 0.06828661 36.93608473 0.06223478 41.82462406 0.04351711 C45.58475999 0.03294934 49.34465172 0.04188247 53.10476494 0.05690193 C54.90728467 0.06208422 56.7098299 0.06160137 58.51234627 0.05535698 C61.03092445 0.04990639 63.54799938 0.07027235 66.06640625 0.09765625 C66.81093048 0.09113037 67.55545471 0.08460449 68.32254028 0.07788086 C71.75156007 0.14127855 73.63857978 0.38143458 76.40769958 2.47694397 C78.41572604 5.2483381 78.82659498 7.22524231 78.96850586 10.63110352 C78.19701689 13.15597651 77.54944263 14.23374047 75.37461853 15.72132874 C71.99415161 16.9995164 68.72336935 16.93427672 65.15820312 16.9375 C63.98431534 16.94998528 63.98431534 16.94998528 62.78671265 16.96272278 C60.20272838 16.98679545 57.61899657 16.99559075 55.03491211 17.00219727 C53.23656641 17.0111645 51.43822148 17.02028636 49.63987732 17.02955627 C45.87139066 17.04604054 42.10299279 17.05374557 38.33447266 17.05664062 C33.50768468 17.06202903 28.68173176 17.09972997 23.85517979 17.14538479 C20.14138239 17.17513633 16.42778675 17.18236374 12.71388054 17.18336678 C10.93446966 17.18757158 9.15505832 17.20001638 7.37576485 17.22088432 C4.88595318 17.24776509 2.39808617 17.24298482 -0.09179688 17.23046875 C-1.19152077 17.25272018 -1.19152077 17.25272018 -2.3134613 17.27542114 C-6.21663152 17.21959494 -7.89446753 16.73999386 -10.98866272 14.28114319 C-13.03149414 11.63110352 -13.03149414 11.63110352 -13.65649414 8.63110352 C-12.11178386 1.21649419 -6.76309434 -0.10649892 0 0 Z " fill="#000000" transform="translate(131.031494140625,337.368896484375)"/>
</svg>
