<?xml version="1.0" encoding="UTF-8"?>
<svg version="1.1" xmlns="http://www.w3.org/2000/svg" width="260" height="260">
<path d="M0 0 C0.72771103 0.00057467 1.45542206 0.00114933 2.20518494 0.00174141 C17.96962715 0.01609996 33.73112228 0.19197567 49.49365234 0.42700195 C52.48483122 0.47150986 55.47602853 0.51306985 58.46728516 0.55200195 C90.35758153 0.96744992 90.35758153 0.96744992 105.4375 2.0546875 C106.36372351 7.54560297 106.58020583 12.83307311 106.56689453 18.39550781 C106.56952301 19.76042107 106.56952301 19.76042107 106.57220459 21.15290833 C106.57658764 24.14622941 106.57369662 27.13949086 106.5703125 30.1328125 C106.57098679 32.22637951 106.57195786 34.31994644 106.57321167 36.41351318 C106.57468404 40.79798123 106.57254974 45.18242886 106.56787109 49.56689453 C106.56218823 55.16279358 106.5654466 60.75864451 106.57144356 66.35454178 C106.57507366 70.67847042 106.57389912 75.00238784 106.57131577 79.32631683 C106.57065253 81.38821163 106.57145364 83.45010747 106.57379532 85.51200104 C106.59210594 106.17434407 106.59210594 106.17434407 105.4375 115.0546875 C100.53498502 116.0351905 96.62807759 116.0546875 91.4375 116.0546875 C91.4375 121.6646875 91.4375 127.2746875 91.4375 133.0546875 C87.60014592 134.97336454 86.22096553 135.31506367 82.13525391 135.37353516 C80.53738037 135.40332458 80.53738037 135.40332458 78.90722656 135.43371582 C77.75448242 135.4452771 76.60173828 135.45683838 75.4140625 135.46875 C74.21410645 135.48820679 73.01415039 135.50766357 71.77783203 135.52770996 C68.54266907 135.57786833 65.30755173 135.61930645 62.07221222 135.65598297 C59.3821459 135.68771227 56.6921855 135.72585026 54.00220299 135.76394463 C45.81415851 135.87959888 37.62592326 135.97047504 29.4375 136.0546875 C27.82551982 136.07282681 26.21354048 136.09104104 24.6015625 136.109375 C7.29458444 136.28490216 -10.00882461 135.92891931 -27.3125 135.6171875 C-28.43146667 135.59763 -29.55043335 135.57807251 -30.70330811 135.55792236 C-41.47975742 135.365022 -52.25116401 135.14460245 -63.015625 134.58203125 C-63.76044128 134.54493546 -64.50525757 134.50783966 -65.27264404 134.46961975 C-70.31624558 134.17781471 -70.31624558 134.17781471 -72.5625 133.0546875 C-80.80998089 105.41743366 -74.9943513 67.62832327 -74.1875 38.9921875 C-74.15672363 37.74622803 -74.12594727 36.50026855 -74.09423828 35.21655273 C-74.05540527 34.07903564 -74.01657227 32.94151855 -73.9765625 31.76953125 C-73.9451416 30.80136475 -73.9137207 29.83319824 -73.88134766 28.83569336 C-73.52253718 25.70612968 -72.64943687 23.00358264 -71.5625 20.0546875 C-60.89808287 18.8408514 -50.27979679 18.95937557 -39.5625 19.0546875 C-39.57410156 18.16265625 -39.58570313 17.270625 -39.59765625 16.3515625 C-39.60667969 15.18109375 -39.61570313 14.010625 -39.625 12.8046875 C-39.63660156 11.64453125 -39.64820313 10.484375 -39.66015625 9.2890625 C-39.58004615 6.63581605 -39.49746454 4.52440516 -38.5625 2.0546875 C-28.67535966 -2.88888267 -10.79605204 -0.01763978 0 0 Z M-4.5625 28.0546875 C-4.89583333 31.0546875 -4.89583333 31.0546875 -4.5625 34.0546875 C-2.73546773 36.3038783 -2.73546773 36.3038783 -0.0625 36.3046875 C2.61046773 36.3038783 2.61046773 36.3038783 4.4375 34.0546875 C4.72352162 29.90959317 4.72352162 29.90959317 3.4375 26.0546875 C-1.05554582 25.62965304 -1.05554582 25.62965304 -4.5625 28.0546875 Z " fill="#2157DA" transform="translate(114.5625,52.9453125)"/>
<path d="M0 0 C1.15786011 -0.00388229 1.15786011 -0.00388229 2.33911133 -0.00784302 C4.54383015 -0.01367545 6.74840521 -0.01212718 8.953125 -0.0078125 C10.23864258 -0.00668457 11.52416016 -0.00555664 12.84863281 -0.00439453 C15.75 0.125 15.75 0.125 16.75 1.125 C18.80478453 1.24880838 20.8637896 1.30298203 22.92211914 1.33032227 C23.56600082 1.34022186 24.20988251 1.35012146 24.87327576 1.36032104 C27.01053131 1.39201528 29.14780913 1.41672449 31.28515625 1.44140625 C32.76346936 1.46196896 34.24177649 1.48296524 35.72007751 1.50437927 C39.61792171 1.55967059 43.51581958 1.60904857 47.41375732 1.65722656 C51.38851723 1.70739019 55.36319884 1.76310301 59.33789062 1.81835938 C67.14186085 1.92602724 74.94589602 2.02745287 82.75 2.125 C83.08 3.775 83.41 5.425 83.75 7.125 C84.35328125 7.19976562 84.9565625 7.27453125 85.578125 7.3515625 C89.90543124 8.06347417 92.17643355 8.53744412 95.3125 11.75 C97.0298988 15.78215371 97.6171326 18.81509341 96.75 23.125 C94.73497111 26.87712276 93.29533858 28.76144095 89.75 31.125 C85.5024747 31.43391093 82.3913547 31.45546701 78.75 29.125 C78.605625 30.40375 78.46125 31.6825 78.3125 33 C78.04357254 35.38192894 77.82773654 36.96952691 76.75 39.125 C76.09 39.125 75.43 39.125 74.75 39.125 C74.75 39.785 74.75 40.445 74.75 41.125 C74.09 41.125 73.43 41.125 72.75 41.125 C72.75 42.115 72.75 43.105 72.75 44.125 C67.40116279 49.125 67.40116279 49.125 64.75 49.125 C64.75 49.785 64.75 50.445 64.75 51.125 C61.78 52.115 61.78 52.115 58.75 53.125 C58.75 53.785 58.75 54.445 58.75 55.125 C56.16877492 55.96539886 53.58536099 56.79750556 51 57.625 C50.27039063 57.86347656 49.54078125 58.10195312 48.7890625 58.34765625 C48.08007812 58.57324219 47.37109375 58.79882812 46.640625 59.03125 C45.99125977 59.24072266 45.34189453 59.45019531 44.67285156 59.66601562 C42.75 60.125 42.75 60.125 38.75 60.125 C38.82863281 59.25101563 38.90726562 58.37703125 38.98828125 57.4765625 C39.23195672 45.24148875 33.79857593 38.02080296 26.3815918 28.65283203 C24.52608435 26.91532408 23.23263555 26.51222784 20.75 26.125 C20.2559668 26.8770874 19.76193359 27.6291748 19.25292969 28.40405273 C17.41325373 31.19270278 15.56352199 33.97409303 13.70654297 36.7512207 C12.90520338 37.95420298 12.10796205 39.15992578 11.31494141 40.3684082 C10.17378016 42.10585834 9.01820447 43.83289364 7.859375 45.55859375 C7.16811523 46.60072021 6.47685547 47.64284668 5.76464844 48.71655273 C3.75 51.125 3.75 51.125 -0.25 52.125 C-5.2 46.185 -5.2 46.185 -10.25 40.125 C-15.40602605 42.70301302 -18.52484288 46.27443283 -22.4375 50.4375 C-23.17419922 51.19740234 -23.91089844 51.95730469 -24.66992188 52.74023438 C-25.37052734 53.48208984 -26.07113281 54.22394531 -26.79296875 54.98828125 C-27.43258545 55.66157471 -28.07220215 56.33486816 -28.73120117 57.02856445 C-30.66396916 59.39012586 -30.66396916 59.39012586 -31.25 64.125 C-14.75 64.125 1.75 64.125 18.75 64.125 C15.63344313 66.46241765 14.02475905 67.5677652 10.5625 68.75 C7.92114493 69.55732047 7.92114493 69.55732047 5.75 71.125 C2.9383662 71.21361992 0.15141745 71.24022355 -2.66015625 71.22265625 C-3.50219101 71.2212413 -4.34422577 71.21982635 -5.21177673 71.21836853 C-7.91205335 71.21275263 -10.61224828 71.20019748 -13.3125 71.1875 C-15.13867068 71.18248705 -16.96484266 71.17792379 -18.79101562 71.17382812 C-23.27737542 71.16277804 -27.76367384 71.14550279 -32.25 71.125 C-32.58 74.425 -32.91 77.725 -33.25 81.125 C-26.65 81.125 -20.05 81.125 -13.25 81.125 C-14.24 81.62 -14.24 81.62 -15.25 82.125 C-15.25 82.785 -15.25 83.445 -15.25 84.125 C-15.91 84.125 -16.57 84.125 -17.25 84.125 C-17.25 84.785 -17.25 85.445 -17.25 86.125 C-18.24 86.62 -18.24 86.62 -19.25 87.125 C-18.24997452 87.13530746 -17.24994904 87.14561493 -16.21961975 87.15623474 C-6.81625227 87.25379804 2.5870465 87.35651546 11.99030209 87.46433926 C16.82513537 87.51961127 21.65997465 87.57303797 26.49487305 87.62231445 C31.15682484 87.66989507 35.81870067 87.72223533 40.48056221 87.77794075 C42.26322105 87.79839296 44.04590075 87.8171012 45.82859612 87.83407402 C48.31671601 87.85805486 50.80469098 87.8881176 53.29272461 87.91967773 C54.03718842 87.9254332 54.78165222 87.93118866 55.54867554 87.93711853 C60.63594784 88.01094784 60.63594784 88.01094784 61.75 89.125 C61.42 91.435 61.09 93.745 60.75 96.125 C31.05 96.125 1.35 96.125 -29.25 96.125 C-29.745 98.105 -29.745 98.105 -30.25 100.125 C-31.46991283 102.53543016 -32.86501686 104.80180248 -34.25 107.125 C-34.91 107.125 -35.57 107.125 -36.25 107.125 C-36.58 108.775 -36.91 110.425 -37.25 112.125 C-38.24 112.455 -39.23 112.785 -40.25 113.125 C-42.20772939 104.52512808 -42.51519068 96.28451199 -42.4453125 87.48828125 C-42.44157217 86.11394967 -42.43873004 84.73961538 -42.43673706 83.36528015 C-42.42918072 79.7863907 -42.40960332 76.20766928 -42.3873291 72.62884521 C-42.36669603 68.96157137 -42.35758799 65.29426899 -42.34765625 61.62695312 C-42.32741489 54.45948809 -42.28824923 47.2924816 -42.25 40.125 C-53.47 40.125 -64.69 40.125 -76.25 40.125 C-76.25 26.125 -76.25 26.125 -74.25 20.125 C-63.58558287 18.9111639 -52.96729679 19.02968807 -42.25 19.125 C-42.26160156 18.23296875 -42.27320313 17.3409375 -42.28515625 16.421875 C-42.29417969 15.25140625 -42.30320313 14.0809375 -42.3125 12.875 C-42.32410156 11.71484375 -42.33570313 10.5546875 -42.34765625 9.359375 C-42.26754615 6.70612855 -42.18496454 4.59471766 -41.25 2.125 C-37.97807186 0.48903593 -34.35322923 0.72814221 -30.75 0.5625 C-29.41437012 0.4998999 -29.41437012 0.4998999 -28.05175781 0.43603516 C-18.70329794 0.0559534 -9.35472819 0.01481729 0 0 Z M-7.25 28.125 C-7.58333333 31.125 -7.58333333 31.125 -7.25 34.125 C-5.42296773 36.3741908 -5.42296773 36.3741908 -2.75 36.375 C-0.07703227 36.3741908 -0.07703227 36.3741908 1.75 34.125 C2.03602162 29.97990567 2.03602162 29.97990567 0.75 26.125 C-3.74304582 25.69996554 -3.74304582 25.69996554 -7.25 28.125 Z " fill="#2B6BDD" transform="translate(117.25,52.875)"/>
<path d="M0 0 C11.22 0 22.44 0 34 0 C34.33 24.42 34.66 48.84 35 74 C63.15739358 74.76851602 91.30139377 75.25464089 119.46716309 75.53222656 C124.63177717 75.58377916 129.79635506 75.63874409 134.9609375 75.69335938 C144.97392769 75.79877473 154.98695109 75.90031824 165 76 C165 81.61 165 87.22 165 93 C161.16264592 94.91867704 159.78346553 95.26037617 155.69775391 95.31884766 C154.63250488 95.33870728 153.56725586 95.35856689 152.46972656 95.37902832 C151.31698242 95.3905896 150.16423828 95.40215088 148.9765625 95.4140625 C147.77660645 95.43351929 146.57665039 95.45297607 145.34033203 95.47302246 C142.10516907 95.52318083 138.87005173 95.56461895 135.63471222 95.60129547 C132.9446459 95.63302477 130.2546855 95.67116276 127.56470299 95.70925713 C119.37665851 95.82491138 111.18842326 95.91578754 103 96 C101.38801982 96.01813931 99.77604048 96.03635354 98.1640625 96.0546875 C80.85708444 96.23021466 63.55367539 95.87423181 46.25 95.5625 C45.13103333 95.5429425 44.01206665 95.52338501 42.85919189 95.50323486 C32.08274258 95.3103345 21.31133599 95.08991495 10.546875 94.52734375 C9.80205872 94.49024796 9.05724243 94.45315216 8.28985596 94.41493225 C3.24625442 94.12312721 3.24625442 94.12312721 1 93 C-3.77351312 77.00398915 -1.10547586 56.61864712 -1.125 40.0625 C-1.1275882 39.05302307 -1.13017639 38.04354614 -1.13284302 37.003479 C-1.15781994 24.62069771 -0.86145936 12.35442119 0 0 Z " fill="#112151" transform="translate(41,93)"/>
<path d="M0 0 C4.68139254 -0.02465288 9.36274759 -0.04283739 14.04418945 -0.05493164 C15.63794614 -0.05997157 17.23169819 -0.0668035 18.82543945 -0.07543945 C21.11150253 -0.08751999 23.39750467 -0.09323155 25.68359375 -0.09765625 C26.40026718 -0.10281754 27.11694061 -0.10797882 27.85533142 -0.11329651 C29.57063672 -0.11349263 31.28581266 -0.06192007 33 0 C33.495 0.495 33.495 0.495 34 1 C36.05478453 1.12380838 38.1137896 1.17798203 40.17211914 1.20532227 C40.81600082 1.21522186 41.45988251 1.22512146 42.12327576 1.23532104 C44.26053131 1.26701528 46.39780913 1.29172449 48.53515625 1.31640625 C50.01346936 1.33696896 51.49177649 1.35796524 52.97007751 1.37937927 C56.86792171 1.43467059 60.76581958 1.48404857 64.66375732 1.53222656 C68.63851723 1.58239019 72.61319884 1.63810301 76.58789062 1.69335938 C84.39186085 1.80102724 92.19589602 1.90245287 100 2 C100.495 4.475 100.495 4.475 101 7 C101.60328125 7.07476562 102.2065625 7.14953125 102.828125 7.2265625 C107.15543124 7.93847417 109.42643355 8.41244412 112.5625 11.625 C114.2798988 15.65715371 114.8671326 18.69009341 114 23 C111.98497111 26.75212276 110.54533858 28.63644095 107 31 C102.7524747 31.30891093 99.6413547 31.33046701 96 29 C95.855625 30.27875 95.71125 31.5575 95.5625 32.875 C95.29357254 35.25692894 95.07773654 36.84452691 94 39 C93.34 39 92.68 39 92 39 C92 39.66 92 40.32 92 41 C91.34 41 90.68 41 90 41 C90 41.99 90 42.98 90 44 C84.65116279 49 84.65116279 49 82 49 C82 49.66 82 50.32 82 51 C80.02 51.66 78.04 52.32 76 53 C76 53.66 76 54.32 76 55 C73.41877492 55.84039886 70.83536099 56.67250556 68.25 57.5 C67.52039063 57.73847656 66.79078125 57.97695312 66.0390625 58.22265625 C65.33007812 58.44824219 64.62109375 58.67382812 63.890625 58.90625 C63.24125977 59.11572266 62.59189453 59.32519531 61.92285156 59.54101562 C60 60 60 60 56 60 C55.67 46.8 55.34 33.6 55 20 C30.25 19.505 30.25 19.505 5 19 C7.31 15.37 9.62 11.74 12 8 C13.0659975 5.69606993 14.10286048 3.37478107 15 1 C10.05 1 5.1 1 0 1 C0 0.67 0 0.34 0 0 Z " fill="#2C6BE2" transform="translate(100,53)"/>
<path d="M0 0 C0.92746536 -0.00073013 1.85493073 -0.00146027 2.8105011 -0.00221252 C5.86271542 0.00125875 8.91338576 0.04009865 11.96533203 0.0793457 C14.08667161 0.08867545 16.208022 0.0957908 18.32937622 0.1007843 C23.90272966 0.1198412 29.47542777 0.16893142 35.04852295 0.2243042 C40.73945247 0.27552449 46.43048826 0.29830433 52.12158203 0.32348633 C63.28072354 0.37705086 74.43937946 0.46234838 85.59814453 0.56762695 C86.72314453 4.31762695 86.72314453 4.31762695 85.59814453 6.56762695 C85.76314453 7.16575195 85.92814453 7.76387695 86.09814453 8.38012695 C86.70823959 11.04929285 86.25570717 12.93737641 85.59814453 15.56762695 C86.25814453 15.56762695 86.91814453 15.56762695 87.59814453 15.56762695 C87.59814453 10.61762695 87.59814453 5.66762695 87.59814453 0.56762695 C87.92814453 0.56762695 88.25814453 0.56762695 88.59814453 0.56762695 C88.59814453 5.84762695 88.59814453 11.12762695 88.59814453 16.56762695 C84.76079045 18.48630399 83.38161006 18.82800312 79.29589844 18.88647461 C77.6980249 18.91626404 77.6980249 18.91626404 76.06787109 18.94665527 C74.91512695 18.95821655 73.76238281 18.96977783 72.57470703 18.98168945 C71.37475098 19.00114624 70.17479492 19.02060303 68.93847656 19.04064941 C65.70331361 19.09080779 62.46819626 19.1322459 59.23285675 19.16892242 C56.54279043 19.20065172 53.85283003 19.23878971 51.16284752 19.27688408 C42.97480304 19.39253833 34.7865678 19.48341449 26.59814453 19.56762695 C24.98616435 19.58576626 23.37418501 19.6039805 21.76220703 19.62231445 C-3.95826105 19.88317113 -29.68889414 19.11843239 -55.40185547 18.56762695 C-55.40185547 18.23762695 -55.40185547 17.90762695 -55.40185547 17.56762695 C-54.57459961 17.54780762 -53.74734375 17.52798828 -52.89501953 17.50756836 C-49.14697741 17.41231483 -45.3994923 17.30263586 -41.65185547 17.19262695 C-40.34990234 17.16168945 -39.04794922 17.13075195 -37.70654297 17.09887695 C-35.83095703 17.04086914 -35.83095703 17.04086914 -33.91748047 16.98168945 C-32.18933105 16.93455811 -32.18933105 16.93455811 -30.42626953 16.88647461 C-27.53202042 16.58134954 -25.81178252 16.15829309 -23.40185547 14.56762695 C-22.96873047 13.67043945 -22.96873047 13.67043945 -22.52685547 12.75512695 C-20.88039252 9.55367121 -18.17158922 7.75145549 -15.40185547 5.56762695 C-14.56806366 4.72460526 -13.73427185 3.88158356 -12.87521362 3.01301575 C-8.85098318 -0.31912873 -5.0448356 -0.10462998 0 0 Z " fill="#07153B" transform="translate(117.40185546875,169.432373046875)"/>
<path d="M0 0 C12.81226914 -0.05840615 25.61152583 0.07264583 38.42041016 0.37231445 C41.28930543 0.43840548 44.15829552 0.49760771 47.02734375 0.55664062 C48.87761361 0.59854322 50.72787447 0.64084578 52.578125 0.68359375 C53.42296448 0.70030624 54.26780396 0.71701874 55.13824463 0.73423767 C59.84113093 0.85162904 64.35726009 1.23412702 69 2 C70.10102642 10.35600408 70.10094304 18.58807963 70 27 C65.99063612 23.22180665 62.82729557 19.20415407 59.6875 14.6875 C59.23310547 14.04232422 58.77871094 13.39714844 58.31054688 12.73242188 C57.20264048 11.15802858 56.10069475 9.57944354 55 8 C53.11580046 8.10244767 53.11580046 8.10244767 51 9 C49.03023941 11.34416247 49.03023941 11.34416247 47.25 14.3125 C46.5590625 15.38757813 45.868125 16.46265625 45.15625 17.5703125 C44.43613247 18.71268076 43.71739646 19.85592098 43 21 C41.59645274 23.23832853 40.17853822 25.46473718 38.75 27.6875 C38.12609375 28.68136719 37.5021875 29.67523438 36.859375 30.69921875 C35 33 35 33 31 34 C27.7 30.04 24.4 26.08 21 22 C17.33308181 23.8334591 15.83505378 24.98717813 13.1796875 27.9140625 C12.12974609 29.05488281 12.12974609 29.05488281 11.05859375 30.21875 C9.97771484 31.40984375 9.97771484 31.40984375 8.875 32.625 C7.43980029 34.20498977 5.99993454 35.78075796 4.5546875 37.3515625 C3.92030762 38.05104004 3.28592773 38.75051758 2.63232422 39.47119141 C1 41 1 41 -1 41 C-1.19344911 36.286494 -1.37197176 31.57273726 -1.53710938 26.8581543 C-1.59525358 25.25676591 -1.65736569 23.65551619 -1.72363281 22.05444336 C-1.81857008 19.74358399 -1.89889009 17.43259028 -1.9765625 15.12109375 C-2.02485703 14.0597245 -2.02485703 14.0597245 -2.0741272 12.97691345 C-2.21617171 8.18729019 -1.50088857 4.48473702 0 0 Z M24 10 C23.66666667 13 23.66666667 13 24 16 C25.82703227 18.2491908 25.82703227 18.2491908 28.5 18.25 C31.17296773 18.2491908 31.17296773 18.2491908 33 16 C33.28602162 11.85490567 33.28602162 11.85490567 32 8 C27.50695418 7.57496554 27.50695418 7.57496554 24 10 Z " fill="#2EC6CC" transform="translate(86,71)"/>
<path d="M0 0 C2.51654612 0.29371698 3.72400898 0.72206351 5.52392578 2.53466797 C5.9929834 3.18064941 6.46204102 3.82663086 6.9453125 4.4921875 C7.72455078 5.54986328 7.72455078 5.54986328 8.51953125 6.62890625 C9.04933594 7.37011719 9.57914063 8.11132812 10.125 8.875 C10.66253906 9.60847656 11.20007813 10.34195313 11.75390625 11.09765625 C18.27893898 20.03093049 18.27893898 20.03093049 18.25 26.875 C18.25773437 28.69644531 18.25773437 28.69644531 18.265625 30.5546875 C18 34 18 34 16 39 C-6.44 39 -28.88 39 -52 39 C-52 34 -52 34 -50.27734375 31.82421875 C-49.50519531 31.11910156 -48.73304687 30.41398437 -47.9375 29.6875 C-44.22873363 26.1889944 -40.81253674 22.60602139 -37.5078125 18.7265625 C-36.06727105 17.07703058 -34.56673075 15.52920426 -33 14 C-29.11985064 15.52059907 -27.26093438 17.86078531 -24.75 21.125 C-24.04359375 22.03507812 -23.3371875 22.94515625 -22.609375 23.8828125 C-22.07828125 24.58148438 -21.5471875 25.28015625 -21 26 C-17.9410651 25.70790462 -17.09040511 25.10907409 -15.09301758 22.69921875 C-14.45001709 21.70535156 -13.8070166 20.71148437 -13.14453125 19.6875 C-12.44005859 18.61242187 -11.73558594 17.53734375 -11.00976562 16.4296875 C-10.27697354 15.2866956 -9.54455605 14.14346346 -8.8125 13 C-8.06945563 11.85605802 -7.32532673 10.7128197 -6.58007812 9.5703125 C-5.22059493 7.48418742 -3.86633301 5.39464467 -2.51879883 3.30078125 C-1 1 -1 1 0 0 Z " fill="#0F2352" transform="translate(138,78)"/>
<path d="M0 0 C-0.35340503 1.33921905 -0.73442459 2.67114575 -1.125 4 C-1.43824219 5.11375 -1.43824219 5.11375 -1.7578125 6.25 C-3.62482317 10.38325632 -5.54035499 13.98962528 -9 17 C-12.47918244 18.0813578 -15.75329829 18.07749718 -19.375 18 C-20.76525391 18.01740234 -20.76525391 18.01740234 -22.18359375 18.03515625 C-24.45799528 18.05860369 -26.72611799 18.04592412 -29 18 C-29.08636719 18.84304687 -29.17273438 19.68609375 -29.26171875 20.5546875 C-29.40222656 21.65039062 -29.54273438 22.74609375 -29.6875 23.875 C-29.81511719 24.96554688 -29.94273438 26.05609375 -30.07421875 27.1796875 C-31 30 -31 30 -33.33203125 31.3828125 C-36 32 -36 32 -40 32 C-40 34.31 -40 36.62 -40 39 C-51.22 39 -62.44 39 -74 39 C-74 25 -74 25 -72 19 C-61.33558287 17.7861639 -50.71729679 17.90468807 -40 18 C-40.01160156 17.10796875 -40.02320313 16.2159375 -40.03515625 15.296875 C-40.04417969 14.12640625 -40.05320313 12.9559375 -40.0625 11.75 C-40.07410156 10.58984375 -40.08570313 9.4296875 -40.09765625 8.234375 C-40.01754615 5.58112855 -39.93496454 3.46971766 -39 1 C-35.43491651 -0.78254175 -31.30832009 -0.44097497 -27.375 -0.625 C-26.43889893 -0.67003662 -25.50279785 -0.71507324 -24.53833008 -0.76147461 C-16.28908257 -1.09896615 -8.2188566 -0.75562331 0 0 Z " fill="#418FF7" transform="translate(115,54)"/>
<path d="M0 0 C0.99976868 -0.00426498 1.99953735 -0.00852997 3.02960205 -0.01292419 C4.68860283 -0.01224442 4.68860283 -0.01224442 6.38111877 -0.0115509 C7.53872711 -0.01490952 8.69633545 -0.01826813 9.88902283 -0.02172852 C13.73739173 -0.03127178 17.58571728 -0.03318329 21.43409729 -0.03425598 C23.42378931 -0.03665558 25.41348134 -0.03905665 27.40317303 -0.0417164 C33.66324021 -0.04986835 39.92329299 -0.05229996 46.18336487 -0.05158997 C52.64934858 -0.05098901 59.11524891 -0.0615427 65.58121151 -0.07733363 C71.12517009 -0.09039236 76.66910137 -0.09577457 82.21307522 -0.09513456 C85.52751567 -0.09487907 88.84186509 -0.09866968 92.15629387 -0.10831261 C95.85109855 -0.11805555 99.54568597 -0.11525706 103.24049377 -0.10920715 C104.89645821 -0.11763641 104.89645821 -0.11763641 106.58587646 -0.12623596 C107.58846497 -0.12204147 108.59105347 -0.11784698 109.62402344 -0.11352539 C110.49842795 -0.11407016 111.37283247 -0.11461493 112.27373409 -0.1151762 C114.37550354 0.13371277 114.37550354 0.13371277 116.37550354 2.13371277 C116.56300354 4.69621277 116.56300354 4.69621277 116.37550354 7.13371277 C114.75140807 8.75780824 112.95691732 8.26315917 110.71304321 8.26742554 C109.20076897 8.27382301 109.20076897 8.27382301 107.65794373 8.28034973 C106.54259247 8.27989655 105.42724121 8.27944336 104.27809143 8.27897644 C103.11072952 8.28233505 101.94336761 8.28569366 100.7406311 8.28915405 C97.52990457 8.29704954 94.31921675 8.30033298 91.10848165 8.30096984 C88.43191858 8.30191738 85.75536177 8.30559388 83.0788011 8.30914193 C76.76599623 8.31729392 70.45320564 8.3197255 64.14039612 8.3190155 C57.61988112 8.31841454 51.09944882 8.32896828 44.57895476 8.34475917 C38.98828746 8.35781776 33.39764725 8.36320011 27.80696481 8.36256009 C24.4645834 8.3623046 21.12227542 8.36518364 17.77990913 8.37573814 C14.05397203 8.38548088 10.32825038 8.38268268 6.60231018 8.37663269 C4.93231964 8.38506195 4.93231964 8.38506195 3.22859192 8.3936615 C2.21758926 8.38946701 1.20658661 8.38527252 0.16494751 8.38095093 C-0.71683135 8.3814957 -1.59861021 8.38204046 -2.50710964 8.38260174 C-4.62449646 8.13371277 -4.62449646 8.13371277 -6.62449646 6.13371277 C-5.96096985 0.69279457 -5.33907565 0.01023705 0 0 Z " fill="#3ABCE2" transform="translate(92.62449645996094,124.86628723144531)"/>
<path d="M0 0 C0.84575089 0.00202423 1.69150177 0.00404846 2.56288147 0.00613403 C3.89205345 0.00350555 3.89205345 0.00350555 5.24807739 0.00082397 C8.19222442 -0.00359583 11.13631191 -0.0006561 14.08045959 0.00271606 C16.11687736 0.00204306 18.15329504 0.00107307 20.18971252 -0.00018311 C24.46368675 -0.00166025 28.73764013 0.00049502 33.01161194 0.00515747 C38.50329498 0.01085477 43.99492916 0.00757585 49.48661041 0.00158501 C53.69348014 -0.00202015 57.90033818 -0.00088223 62.10720825 0.0017128 C64.13271083 0.00238219 66.15821446 0.00155321 68.18371582 -0.00076675 C71.00935189 -0.00329254 73.83490766 0.00054626 76.66053772 0.00613403 C77.5062886 0.0041098 78.35203949 0.00208557 79.22341919 0 C84.99744719 0.02126616 84.99744719 0.02126616 86.11170959 1.13552856 C85.82440904 3.47497592 85.4923418 5.80944287 85.11170959 8.13552856 C73.26405786 8.15865059 61.41641146 8.17644293 49.5687418 8.18734074 C44.06800098 8.19256987 38.56727554 8.19966807 33.06654358 8.21096802 C27.76274399 8.22179581 22.45895924 8.22780517 17.15514946 8.23040581 C15.12685347 8.23226025 13.09855834 8.23588123 11.07026863 8.24125862 C8.23974446 8.24846762 5.40928241 8.24951957 2.57875061 8.24905396 C1.30776772 8.25444687 1.30776772 8.25444687 0.0111084 8.25994873 C-5.77423824 8.24958073 -5.77423824 8.24958073 -6.88829041 7.13552856 C-7.01329041 4.13552856 -7.01329041 4.13552856 -6.88829041 1.13552856 C-5.04594114 -0.7068207 -2.45183459 0.00903028 0 0 Z " fill="#39BDE0" transform="translate(92.88829040527344,140.86447143554688)"/>
<path d="M0 0 C0.02730494 2.18742879 0.04653255 4.37495907 0.0625 6.5625 C0.07410156 7.78066406 0.08570313 8.99882813 0.09765625 10.25390625 C0 14 0 14 -1 21 C-12.22 21 -23.44 21 -35 21 C-35 7 -35 7 -33 1 C-22.01480208 -0.27364614 -11.04098375 -0.10085216 0 0 Z " fill="#2FC7CC" transform="translate(76,72)"/>
<path d="M0 0 C8.55522252 -0.02339812 17.11043119 -0.04105263 25.66567802 -0.05181217 C29.64024885 -0.05698192 33.61479744 -0.06396902 37.58935547 -0.07543945 C71.39141816 -0.17053406 71.39141816 -0.17053406 86 1 C86.92622351 6.49091547 87.14270583 11.77838561 87.12939453 17.34082031 C87.13202301 18.70573357 87.13202301 18.70573357 87.13470459 20.09822083 C87.13908764 23.09154191 87.13619662 26.08480336 87.1328125 29.078125 C87.13348679 31.17169201 87.13445786 33.26525894 87.13571167 35.35882568 C87.13718404 39.74329373 87.13504974 44.12774136 87.13037109 48.51220703 C87.12468823 54.10810608 87.1279466 59.70395701 87.13394356 65.29985428 C87.13757366 69.62378292 87.13639912 73.94770034 87.13381577 78.27162933 C87.13315253 80.33352413 87.13395364 82.39541997 87.13629532 84.45731354 C87.15460594 105.11965657 87.15460594 105.11965657 86 114 C80.92435663 115.02627064 76.07710024 115.141881 70.92578125 115.12939453 C70.0300943 115.13114685 69.13440735 115.13289917 68.21157837 115.13470459 C65.24519919 115.13910692 62.27887982 115.13618282 59.3125 115.1328125 C57.21492502 115.13348787 55.11735011 115.13445984 53.01977539 115.13571167 C48.60139223 115.13718801 44.18302925 115.13504302 39.76464844 115.13037109 C34.22278163 115.12478474 28.68096405 115.12796922 23.13909912 115.13382339 C-3.25676817 115.15729351 -29.61818703 114.88446272 -56 114 C-56 113.67 -56 113.34 -56 113 C-9.47 113 37.06 113 85 113 C85 76.7 85 40.4 85 3 C83.02 3.33 81.04 3.66 79 4 C79.27540704 7.81813447 79.27540704 7.81813447 81 11 C81.07244053 13.01964199 81.08377188 15.04167124 81.0625 17.0625 C81.05347656 18.16722656 81.04445312 19.27195312 81.03515625 20.41015625 C81.01775391 21.69212891 81.01775391 21.69212891 81 23 C80.34 23.33 79.68 23.66 79 24 C79.03480469 23.33613281 79.06960937 22.67226562 79.10546875 21.98828125 C79.22439705 18.10895333 79.21654308 14.74243341 78.125 11 C74.71480399 7.79040376 70.53391135 7.56992882 66 7 C66 5.02 66 3.04 66 1 C44.22 1 22.44 1 0 1 C0 0.67 0 0.34 0 0 Z " fill="#295099" transform="translate(134,54)"/>
<path d="M0 0 C37.29 0 74.58 0 113 0 C113 1.32 113 2.64 113 4 C75.71 4 38.42 4 0 4 C0 2.68 0 1.36 0 0 Z " fill="#2DC9CE" transform="translate(94,127)"/>
<path d="M0 0 C12.81226914 -0.05840615 25.61152583 0.07264583 38.42041016 0.37231445 C41.28930543 0.43840548 44.15829552 0.49760771 47.02734375 0.55664062 C48.87761361 0.59854322 50.72787447 0.64084578 52.578125 0.68359375 C53.42296448 0.70030624 54.26780396 0.71701874 55.13824463 0.73423767 C59.84113093 0.85162904 64.35726009 1.23412702 69 2 C70.10102642 10.35600408 70.10094304 18.58807963 70 27 C65.99063612 23.22180665 62.82729557 19.20415407 59.6875 14.6875 C59.23310547 14.04232422 58.77871094 13.39714844 58.31054688 12.73242188 C57.20264048 11.15802858 56.10069475 9.57944354 55 8 C53.35 8.33 51.7 8.66 50 9 C50.33 7.02 50.66 5.04 51 3 C52.98 3.66 54.96 4.32 57 5 C57 4.34 57 3.68 57 3 C39.51 2.67 22.02 2.34 4 2 C4 2.66 4 3.32 4 4 C3.01 4.495 3.01 4.495 2 5 C1.67 15.23 1.34 25.46 1 36 C2.32 36.33 3.64 36.66 5 37 C3.71034824 38.37562854 2.37310707 39.70766393 1 41 C0.34 41 -0.32 41 -1 41 C-1.19344911 36.286494 -1.37197176 31.57273726 -1.53710938 26.8581543 C-1.59525358 25.25676591 -1.65736569 23.65551619 -1.72363281 22.05444336 C-1.81857008 19.74358399 -1.89889009 17.43259028 -1.9765625 15.12109375 C-2.02485703 14.0597245 -2.02485703 14.0597245 -2.0741272 12.97691345 C-2.21617171 8.18729019 -1.50088857 4.48473702 0 0 Z " fill="#32C4D1" transform="translate(86,71)"/>
<path d="M0 0 C2.69105198 2.17574416 4.45532928 3.91065856 6 7 C6.50872093 13.10465114 6.06705978 16.11952826 2 21 C-1.72579089 23.48386059 -3.58711402 23.3804212 -8 23 C-11.83949079 21.29355965 -13.42079734 19.83718541 -15 16 C-15.65528607 12.20623855 -15.86351149 8.5472585 -13.94921875 5.1171875 C-9.95954244 0.24483944 -6.21785736 -1.09586758 0 0 Z " fill="#D7E5F5" transform="translate(208,61)"/>
<path d="M0 0 C40.59 0 81.18 0 123 0 C123 0.33 123 0.66 123 1 C83.4 1.33 43.8 1.66 3 2 C2.67 3.65 2.34 5.3 2 7 C3.00055445 8.22131594 3.00055445 8.22131594 4.9971323 8.12304783 C6.32313151 8.12166514 6.32313151 8.12166514 7.67591858 8.12025452 C9.19252831 8.12231651 9.19252831 8.12231651 10.73977661 8.12442017 C11.85826996 8.12082489 12.97676331 8.11722961 14.12915039 8.11352539 C15.88501213 8.11374443 15.88501213 8.11374443 17.67634583 8.1139679 C20.89520943 8.11338895 24.11403004 8.10835991 27.33288503 8.10139394 C30.693474 8.09515957 34.05406373 8.09455654 37.41465759 8.09336853 C43.78242342 8.09025546 50.15017216 8.0820424 56.51793045 8.07201904 C63.76569729 8.06085715 71.01346493 8.05534726 78.26123822 8.05032361 C93.17416835 8.03985977 108.08708247 8.0222608 123 8 C123.66 6.35 124.32 4.7 125 3 C125.92091738 5.57856865 126.18506902 6.5943287 125.0234375 9.140625 C124.68570313 9.75421875 124.34796875 10.3678125 124 11 C110.65511828 11.02331469 97.31024152 11.04101158 83.96534348 11.05181217 C77.76676456 11.05699957 71.56819972 11.06402063 65.36962891 11.07543945 C59.37196975 11.08641725 53.37432402 11.09230792 47.37665558 11.09487724 C45.10449259 11.09670496 42.83233021 11.10027301 40.56017303 11.10573006 C26.6719398 11.13771607 12.86337753 10.85314488 -1 10 C-0.67 6.7 -0.34 3.4 0 0 Z " fill="#1163C4" transform="translate(85,124)"/>
<path d="M0 0 C9.57 0 19.14 0 29 0 C29 0.99 29 1.98 29 3 C26.734375 4.68359375 26.734375 4.68359375 23.75 6.4375 C20.86731184 8.14194657 18.3696181 9.62234673 16.0234375 12.01953125 C13.53746075 14.45271699 10.9968936 15.73124095 7.875 17.25 C6.82054687 17.77078125 5.76609375 18.2915625 4.6796875 18.828125 C2 20 2 20 0 20 C0 13.4 0 6.8 0 0 Z " fill="#1F366A" transform="translate(41,93)"/>
<path d="M0 0 C29.04 0 58.08 0 88 0 C88 1.32 88 2.64 88 4 C58.96 4 29.92 4 0 4 C0 2.68 0 1.36 0 0 Z " fill="#2DC9CE" transform="translate(88,143)"/>
<path d="M0 0 C-1.12876201 4.00955897 -2.28953951 7.99182127 -3.625 11.9375 C-3.88539062 12.70964844 -4.14578125 13.48179688 -4.4140625 14.27734375 C-4.60742188 14.84582031 -4.80078125 15.41429688 -5 16 C-5.99 16 -6.98 16 -8 16 C-8 16.99 -8 17.98 -8 19 C-10.64 19 -13.28 19 -16 19 C-15.34 17.35 -14.68 15.7 -14 14 C-15.32 14 -16.64 14 -18 14 C-18.33 12.02 -18.66 10.04 -19 8 C-16.625 7.375 -16.625 7.375 -14 7 C-13.34 7.66 -12.68 8.32 -12 9 C-11.608125 8.566875 -11.21625 8.13375 -10.8125 7.6875 C-8.72209066 5.74125682 -6.44810452 4.45562972 -4 3 C-4 2.67 -4 2.34 -4 2 C-9.445 1.505 -9.445 1.505 -15 1 C-15 1.66 -15 2.32 -15 3 C-18.3 3.33 -21.6 3.66 -25 4 C-24.01 5.32 -23.02 6.64 -22 8 C-22 9.32 -22 10.64 -22 12 C-24.375 12.125 -24.375 12.125 -27 12 C-29 10 -29 10 -29.125 6.375 C-29.08375 5.26125 -29.0425 4.1475 -29 3 C-29.99 3 -30.98 3 -32 3 C-32 8.61 -32 14.22 -32 20 C-21.44 20 -10.88 20 0 20 C0 20.33 0 20.66 0 21 C-11.22 21 -22.44 21 -34 21 C-34 7 -34 7 -32 1 C-21.33558287 -0.2138361 -10.71729679 -0.09531193 0 0 Z " fill="#4BABA3" transform="translate(75,72)"/>
<path d="M0 0 C0.92212784 0.00359528 1.84425568 0.00719055 2.79432678 0.01089478 C4.24295105 0.01067574 4.24295105 0.01067574 5.72084045 0.01045227 C8.92952175 0.01115182 12.1381458 0.0189462 15.34681702 0.02676392 C17.56499195 0.02862794 19.78316729 0.03005192 22.00134277 0.03105164 C27.85231148 0.03487801 33.70325554 0.04470931 39.55421448 0.05575562 C45.51958381 0.06596717 51.4849571 0.07054871 57.45033264 0.07559204 C69.16453621 0.08633147 80.87872144 0.10340932 92.59291077 0.12442017 C92.26291077 5.40442017 91.93291077 10.68442017 91.59291077 16.12442017 C90.93291077 16.12442017 90.27291077 16.12442017 89.59291077 16.12442017 C89.61353577 15.03129517 89.63416077 13.93817017 89.65541077 12.81192017 C89.77835529 9.18057826 89.77835529 9.18057826 88.59291077 6.12442017 C89.03041077 3.43692017 89.03041077 3.43692017 89.59291077 1.12442017 C88.61960312 1.28806061 87.64629547 1.45170105 86.64349365 1.62030029 C82.34303857 2.23077192 78.11992843 2.23586188 73.78358459 2.19033813 C72.93067337 2.18566528 72.07776215 2.18099243 71.19900513 2.17617798 C69.35859688 2.16572558 67.51820002 2.15307993 65.67782021 2.13845444 C62.76513093 2.11634341 59.8525075 2.10232304 56.9397583 2.09075928 C48.66234886 2.05723757 40.38504962 2.01535655 32.10780334 1.95303345 C27.03582727 1.9154196 21.96396137 1.89237633 16.89186668 1.87872696 C14.96091819 1.87066969 13.02998461 1.85705658 11.09911537 1.83779526 C8.40395523 1.81136168 5.70932686 1.80342768 3.01405334 1.79971313 C1.81782349 1.78117783 1.81782349 1.78117783 0.59742737 1.76226807 C-3.67657604 1.77782787 -6.32201675 2.02672999 -9.40708923 5.12442017 C-6.87240652 -0.11392412 -5.9729349 0.00984062 0 0 Z M-11.40708923 5.12442017 C-9.40708923 6.12442017 -9.40708923 6.12442017 -9.40708923 6.12442017 Z " fill="#011651" transform="translate(113.40708923339844,168.87557983398438)"/>
<path d="M0 0 C3 1.9375 3 1.9375 5 5 C5.82333506 9.87067687 5.43697866 13.68390526 3 18 C2.34 18 1.68 18 1 18 C1.03480469 17.38511719 1.06960937 16.77023438 1.10546875 16.13671875 C1.13253906 15.32847656 1.15960938 14.52023438 1.1875 13.6875 C1.22230469 12.88699219 1.25710937 12.08648437 1.29296875 11.26171875 C0.93801608 8.52148416 0.10633718 7.70828921 -2 6 C-2.33 6.99 -2.66 7.98 -3 9 C-4.98 8.34 -6.96 7.68 -9 7 C-9.06058594 7.69867188 -9.12117187 8.39734375 -9.18359375 9.1171875 C-9.26738281 10.02726562 -9.35117188 10.93734375 -9.4375 11.875 C-9.51871094 12.77992187 -9.59992188 13.68484375 -9.68359375 14.6171875 C-10 17 -10 17 -11 19 C-11.99 18.67 -12.98 18.34 -14 18 C-15.74221711 14.51556578 -15.58675154 10.80112955 -15 7 C-11.55683218 0.78174171 -6.93042118 -1.12635908 0 0 Z " fill="#F2F7FC" transform="translate(208,61)"/>
<path d="M0 0 C13.90419055 -0.07277035 27.78805609 0.14918825 41.6875 0.5 C43.67252093 0.54838742 45.65754697 0.59656551 47.64257812 0.64453125 C52.42844752 0.76061972 57.21423977 0.8794987 62 1 C62 1.33 62 1.66 62 2 C42.86 2 23.72 2 4 2 C4 2.66 4 3.32 4 4 C3.01 4.495 3.01 4.495 2 5 C1.67 15.23 1.34 25.46 1 36 C2.32 36.33 3.64 36.66 5 37 C3.71034824 38.37562854 2.37310707 39.70766393 1 41 C0.34 41 -0.32 41 -1 41 C-1.19344911 36.286494 -1.37197176 31.57273726 -1.53710938 26.8581543 C-1.59525358 25.25676591 -1.65736569 23.65551619 -1.72363281 22.05444336 C-1.81857008 19.74358399 -1.89889009 17.43259028 -1.9765625 15.12109375 C-2.02485703 14.0597245 -2.02485703 14.0597245 -2.0741272 12.97691345 C-2.21617171 8.18729019 -1.50088857 4.48473702 0 0 Z " fill="#35B0E2" transform="translate(86,71)"/>
<path d="M0 0 C8.8488239 -0.02312589 17.69763747 -0.04091634 26.54648495 -0.05181217 C30.65494285 -0.05704046 34.76338014 -0.06413713 38.87182617 -0.07543945 C42.83346828 -0.08627025 46.79509052 -0.09227724 50.75674629 -0.09487724 C52.27148311 -0.09673114 53.78621879 -0.1003511 55.30094719 -0.10573006 C57.41541813 -0.11294307 59.52980594 -0.11399083 61.64428711 -0.11352539 C62.85007919 -0.115746 64.05587128 -0.11796661 65.29820251 -0.12025452 C68 0 68 0 69 1 C71.69235776 1.23678716 74.36498156 1.42198025 77.0625 1.5625 C78.20041992 1.62727539 78.20041992 1.62727539 79.36132812 1.69335938 C81.24065438 1.79973633 83.12030244 1.90039934 85 2 C85 2.33 85 2.66 85 3 C83.02 3.33 81.04 3.66 79 4 C79.27540704 7.81813447 79.27540704 7.81813447 81 11 C81.07244053 13.01964199 81.08377188 15.04167124 81.0625 17.0625 C81.05347656 18.16722656 81.04445313 19.27195312 81.03515625 20.41015625 C81.02355469 21.26480469 81.01195312 22.11945313 81 23 C80.34 23.33 79.68 23.66 79 24 C79.03480469 23.33613281 79.06960937 22.67226562 79.10546875 21.98828125 C79.22439705 18.10895333 79.21654308 14.74243341 78.125 11 C74.71480399 7.79040376 70.53391135 7.56992882 66 7 C66 5.02 66 3.04 66 1 C44.22 1 22.44 1 0 1 C0 0.67 0 0.34 0 0 Z " fill="#335EB9" transform="translate(134,54)"/>
<path d="M0 0 C0 4.28535967 -2.2516278 5.84942699 -5 9 C-5.33 9.66 -5.66 10.32 -6 11 C15.45 11 36.9 11 59 11 C59 10.01 59 9.02 59 8 C59.66 8 60.32 8 61 8 C60.67 9.65 60.34 11.3 60 13 C37.56 13 15.12 13 -8 13 C-8 8 -8 8 -6.25 5.76171875 C-5.13625 4.73498047 -5.13625 4.73498047 -4 3.6875 C-3.2575 2.99011719 -2.515 2.29273437 -1.75 1.57421875 C-1.1725 1.05472656 -0.595 0.53523438 0 0 Z " fill="#0A276C" transform="translate(94,104)"/>
<path d="M0 0 C2.64 0 5.28 0 8 0 C8 4 8 8 8 12 C8.66 12 9.32 12 10 12 C9.814375 12.598125 9.62875 13.19625 9.4375 13.8125 C8.77906313 16.16408762 8.77906313 16.16408762 10 19 C9.34 19.33 8.68 19.66 8 20 C8 20.99 8 21.98 8 23 C8.66 23.33 9.32 23.66 10 24 C9.34 25.32 8.68 26.64 8 28 C4.20450741 27.45418801 2.69020705 25.94590705 0.25 23.0625 C-0.36359375 22.35222656 -0.9771875 21.64195313 -1.609375 20.91015625 C-3 19 -3 19 -3 17 C-2.01 16.67 -1.02 16.34 0 16 C-0.66 14.02 -1.32 12.04 -2 10 C-0.2984375 10.2784375 -0.2984375 10.2784375 1.4375 10.5625 C2.613125 10.706875 3.78875 10.85125 5 11 C6.20561184 10.01732141 6.20561184 10.01732141 6.09765625 8.15234375 C6.08605469 7.42144531 6.07445313 6.69054687 6.0625 5.9375 C6.041875 4.638125 6.02125 3.33875 6 2 C4.02 2 2.04 2 0 2 C0 1.34 0 0.68 0 0 Z " fill="#3CC2C0" transform="translate(112,77)"/>
<path d="M0 0 C0.99 0 1.98 0 3 0 C3.125 2.375 3.125 2.375 3 5 C2.34 5.66 1.68 6.32 1 7 C0.32707499 8.96690374 0.32707499 8.96690374 -0.125 11.125 C-0.41375 12.40375 -0.7025 13.6825 -1 15 C-1.99 15 -2.98 15 -4 15 C-4 15.99 -4 16.98 -4 18 C-6.64 18 -9.28 18 -12 18 C-11.34 16.35 -10.68 14.7 -10 13 C-11.32 13 -12.64 13 -14 13 C-14.33 11.02 -14.66 9.04 -15 7 C-12.625 6.375 -12.625 6.375 -10 6 C-9.34 6.66 -8.68 7.32 -8 8 C-7.608125 7.566875 -7.21625 7.13375 -6.8125 6.6875 C-5 5 -5 5 -2.3125 3.4375 C-1.1678125 2.7259375 -1.1678125 2.7259375 0 2 C0 1.34 0 0.68 0 0 Z " fill="#31BFC8" transform="translate(71,73)"/>
<path d="M0 0 C0.33 0 0.66 0 1 0 C1.02722517 2.20826378 1.04649729 4.41662638 1.0625 6.625 C1.07410156 7.85476562 1.08570313 9.08453125 1.09765625 10.3515625 C1 14 1 14 0 20 C-10.56 20 -21.12 20 -32 20 C-32 19.67 -32 19.34 -32 19 C-24.08 19 -16.16 19 -8 19 C-8 18.01 -8 17.02 -8 16 C-7.01 16 -6.02 16 -5 16 C-4.87625 14.72125 -4.7525 13.4425 -4.625 12.125 C-4.25 8.25 -4.25 8.25 -2 6 C-1.28591666 4.01643517 -0.61382258 2.01684563 0 0 Z " fill="#35C0D5" transform="translate(75,72)"/>
<path d="M0 0 C11.45650016 -0.02312241 22.91299481 -0.04091457 34.36951351 -0.05181217 C39.68865213 -0.05704122 45.00777484 -0.06413927 50.3269043 -0.07543945 C55.45563985 -0.08626755 60.58436006 -0.09227667 65.71310616 -0.09487724 C67.67441614 -0.09673163 69.63572524 -0.10035251 71.59702873 -0.10573006 C74.33415447 -0.11293946 77.07121597 -0.11399099 79.80834961 -0.11352539 C81.03725418 -0.1189183 81.03725418 -0.1189183 82.29098511 -0.12442017 C87.88594784 -0.11405216 87.88594784 -0.11405216 89 1 C89.04063832 2.66617115 89.042721 4.33388095 89 6 C88.51227364 5.02688873 88.51227364 5.02688873 88.01469421 4.03411865 C85.4869195 1.4819727 83.67025037 1.50579295 80.16906738 1.43885803 C78.97900085 1.44640358 78.97900085 1.44640358 77.76489258 1.45410156 C76.92564743 1.44376389 76.08640228 1.43342621 75.22172546 1.42277527 C72.4458002 1.393261 69.67060133 1.3918463 66.89453125 1.390625 C64.97066347 1.37564915 63.04680858 1.35892327 61.12297058 1.34051514 C56.05786562 1.29676248 50.99293409 1.27682502 45.92767334 1.26177979 C40.75962026 1.2422372 35.59175528 1.20026404 30.42382812 1.16015625 C20.28260999 1.08476843 10.14143377 1.0345289 0 1 C0 0.67 0 0.34 0 0 Z " fill="#43B6ED" transform="translate(90,141)"/>
<path d="M0 0 C7.24486551 -0.02526739 14.48971974 -0.0428318 21.73461914 -0.05493164 C24.20142033 -0.05997356 26.66821852 -0.06680691 29.13500977 -0.07543945 C32.67204529 -0.08751125 36.20904145 -0.09322956 39.74609375 -0.09765625 C40.85649521 -0.10281754 41.96689667 -0.10797882 43.11094666 -0.11329651 C44.64242088 -0.11340981 44.64242088 -0.11340981 46.20483398 -0.11352539 C47.10862289 -0.115746 48.0124118 -0.11796661 48.94358826 -0.12025452 C51 0 51 0 52 1 C52.08726223 2.78071246 52.10699041 4.5648314 52.09765625 6.34765625 C52.09443359 7.42724609 52.09121094 8.50683594 52.08789062 9.61914062 C52.07532227 11.32360352 52.07532227 11.32360352 52.0625 13.0625 C52.05798828 14.20267578 52.05347656 15.34285156 52.04882812 16.51757812 C52.03699747 19.34510351 52.0205141 22.1725264 52 25 C51.67 25 51.34 25 51 25 C50.82814802 23.04211489 50.66284429 21.08365489 50.5 19.125 C50.4071875 18.03445312 50.314375 16.94390625 50.21875 15.8203125 C49.955366 11.22049911 50 6.60734787 50 2 C25.25 1.505 25.25 1.505 0 1 C0 0.67 0 0.34 0 0 Z " fill="#1F7AD0" transform="translate(105,71)"/>
<path d="M0 0 C11.55 0 23.1 0 35 0 C35 0.33 35 0.66 35 1 C19.16 1.495 19.16 1.495 3 2 C2.67 3.65 2.34 5.3 2 7 C3.51421001 8.51421001 4.92472768 8.21309856 7.03515625 8.31640625 C7.84404297 8.35830078 8.65292969 8.40019531 9.48632812 8.44335938 C10.33646484 8.48267578 11.18660156 8.52199219 12.0625 8.5625 C12.91650391 8.60568359 13.77050781 8.64886719 14.65039062 8.69335938 C16.76672037 8.79976702 18.88333813 8.90041731 21 9 C21 9.33 21 9.66 21 10 C13.74 10 6.48 10 -1 10 C-0.67 6.7 -0.34 3.4 0 0 Z " fill="#1D79CD" transform="translate(85,124)"/>
<path d="M0 0 C0.99 0.33 1.98 0.66 3 1 C1.75023244 4.65316671 1.32901247 5.78065836 -2 8 C-4.74341518 8.45770675 -7.42742471 8.83091338 -10.1875 9.125 C-10.93708984 9.21136719 -11.68667969 9.29773438 -12.45898438 9.38671875 C-14.30517412 9.59838382 -16.15249344 9.80015464 -18 10 C-17.67 10.66 -17.34 11.32 -17 12 C-18.32 12 -19.64 12 -21 12 C-20.67 10.02 -20.34 8.04 -20 6 C-19.484375 6.165 -18.96875 6.33 -18.4375 6.5 C-15.10784527 7.1830061 -12.39545558 7.35741638 -9 7 C-6.24958334 4.58333229 -6.24958334 4.58333229 -4 2 C-3.01 2 -2.02 2 -1 2 C-0.67 1.34 -0.34 0.68 0 0 Z " fill="#2756DD" transform="translate(216,76)"/>
<path d="M0 0 C0.33 0 0.66 0 1 0 C1 8.58 1 17.16 1 26 C2.32 26.33 3.64 26.66 5 27 C3.71034824 28.37562854 2.37310707 29.70766393 1 31 C0.34 31 -0.32 31 -1 31 C-1.02908633 26.77084783 -1.04682792 22.54172148 -1.0625 18.3125 C-1.07087891 17.11431641 -1.07925781 15.91613281 -1.08789062 14.68164062 C-1.09111328 13.52470703 -1.09433594 12.36777344 -1.09765625 11.17578125 C-1.10289307 10.11270752 -1.10812988 9.04963379 -1.11352539 7.9543457 C-1.00716844 5.1865491 -0.62894788 2.69207103 0 0 Z " fill="#39B9DB" transform="translate(86,81)"/>
<path d="M0 0 C1.98 0.66 3.96 1.32 6 2 C6.33 1.34 6.66 0.68 7 0 C7.99 0.33 8.98 0.66 10 1 C10 1.66 10 2.32 10 3 C9.01 3.495 9.01 3.495 8 4 C8.33 6.31 8.66 8.62 9 11 C8.34 11 7.68 11 7 11 C6.67 10.34 6.34 9.68 6 9 C4.02 9.33 2.04 9.66 0 10 C0.33 8.02 0.66 6.04 1 4 C0.34 3.67 -0.32 3.34 -1 3 C-0.67 2.01 -0.34 1.02 0 0 Z " fill="#2D3758" transform="translate(199,67)"/>
<path d="M0 0 C0.99 0 1.98 0 3 0 C3.56638908 4.81430721 1.82561627 7.20307814 -1 11 C-2.65 10.67 -4.3 10.34 -6 10 C-5.8125 7.6875 -5.8125 7.6875 -5 5 C-2.4375 3.3125 -2.4375 3.3125 0 2 C0 1.34 0 0.68 0 0 Z " fill="#2EBBC4" transform="translate(71,73)"/>
<path d="M0 0 C2.71097227 0.37392721 3.82000467 0.81357627 5.75 2.8125 C7 5 7 5 7 9 C4.625 9.125 4.625 9.125 2 9 C0 7 0 7 -0.125 3.375 C-0.08375 2.26125 -0.0425 1.1475 0 0 Z " fill="#32B9C3" transform="translate(46,75)"/>
<path d="M0 0 C1.99996498 1.65168612 2.91796488 2.52102077 3.36328125 5.12109375 C3.34652344 5.88550781 3.32976562 6.64992188 3.3125 7.4375 C3.30863281 8.19933594 3.30476562 8.96117188 3.30078125 9.74609375 C2.9739386 12.19529127 2.21954601 13.86700917 1 16 C0.34 16 -0.32 16 -1 16 C-1.02725341 14.2709226 -1.04650987 12.54171824 -1.0625 10.8125 C-1.07410156 9.84957031 -1.08570313 8.88664062 -1.09765625 7.89453125 C-1.00486622 5.14423487 -0.62111685 2.67520409 0 0 Z " fill="#E7F2F7" transform="translate(210,63)"/>
<path d="M0 0 C1.62418745 -0.08090971 3.24951745 -0.13914995 4.875 -0.1875 C5.77992187 -0.22230469 6.68484375 -0.25710937 7.6171875 -0.29296875 C8.79667969 -0.14794922 8.79667969 -0.14794922 10 0 C10.66 0.99 11.32 1.98 12 3 C11.34 3.66 10.68 4.32 10 5 C9.67 4.01 9.34 3.02 9 2 C7.68 2 6.36 2 5 2 C5 3.32 5 4.64 5 6 C0.92857143 9 0.92857143 9 -2 9 C-2 8.34 -2 7.68 -2 7 C-1.34 6.67 -0.68 6.34 0 6 C0 4.02 0 2.04 0 0 Z " fill="#3CBCCA" transform="translate(52,78)"/>
<path d="M0 0 C0 0.99 0 1.98 0 3 C-3.16240582 5.10827055 -4.50657469 5.33817465 -8.1875 5.625 C-9.08855469 5.69976562 -9.98960937 5.77453125 -10.91796875 5.8515625 C-11.60503906 5.90054688 -12.29210937 5.94953125 -13 6 C-12.67 6.66 -12.34 7.32 -12 8 C-13.32 8 -14.64 8 -16 8 C-15.67 6.02 -15.34 4.04 -15 2 C-14.484375 2.165 -13.96875 2.33 -13.4375 2.5 C-9.12061652 3.38551456 -5.40593736 3.86519222 -1.5625 1.5 C-1.046875 1.005 -0.53125 0.51 0 0 Z " fill="#315CCA" transform="translate(211,80)"/>
<path d="M0 0 C0.99 0.33 1.98 0.66 3 1 C2.49396008 3.16874252 2.00016187 4.99967627 1 7 C1.99 6.67 2.98 6.34 4 6 C4 6.66 4 7.32 4 8 C3.34 8 2.68 8 2 8 C2 8.66 2 9.32 2 10 C1.34 10 0.68 10 0 10 C0 10.66 0 11.32 0 12 C-0.99 11.67 -1.98 11.34 -3 11 C-2.34 10.67 -1.68 10.34 -1 10 C-0.53248212 7.64400765 -0.53248212 7.64400765 -0.375 4.9375 C-0.30023438 4.01839844 -0.22546875 3.09929687 -0.1484375 2.15234375 C-0.09945312 1.44207031 -0.05046875 0.73179688 0 0 Z " fill="#C4D3DD" transform="translate(198,70)"/>
<path d="M0 0 C1.32 0.99 2.64 1.98 4 3 C3.34 4.32 2.68 5.64 2 7 C0.125 6.6875 0.125 6.6875 -2 6 C-2.66 5.01 -3.32 4.02 -4 3 C-2.68 2.01 -1.36 1.02 0 0 Z " fill="#39BCC9" transform="translate(118,98)"/>
<path d="M0 0 C0.99 0.33 1.98 0.66 3 1 C3 1.66 3 2.32 3 3 C2.01 3.495 2.01 3.495 1 4 C1.33 6.31 1.66 8.62 2 11 C1.34 11 0.68 11 0 11 C-1.75 8.75 -1.75 8.75 -3 6 C-2.25 3.8125 -2.25 3.8125 -1 2 C-0.67 1.34 -0.34 0.68 0 0 Z " fill="#212E4A" transform="translate(206,67)"/>
<path d="M0 0 C0.33 0 0.66 0 1 0 C1 4.95 1 9.9 1 15 C-0.65 13.35 -2.3 11.7 -4 10 C-4 9.34 -4 8.68 -4 8 C-2.68 8.33 -1.36 8.66 0 9 C0 6.03 0 3.06 0 0 Z " fill="#3BB3D1" transform="translate(155,83)"/>
<path d="M0 0 C2 0.1875 2 0.1875 4 1 C4.66 1.99 5.32 2.98 6 4 C3.69 3.67 1.38 3.34 -1 3 C-1 4.32 -1 5.64 -1 7 C-1.99 7 -2.98 7 -4 7 C-2.92598892 4.08482708 -2.22189824 2.22189824 0 0 Z " fill="#07355C" transform="translate(138,78)"/>
<path d="M0 0 C1.65 0.33 3.3 0.66 5 1 C4.67 2.32 4.34 3.64 4 5 C2.35 4.67 0.7 4.34 -1 4 C-0.67 2.68 -0.34 1.36 0 0 Z " fill="#05365C" transform="translate(57,79)"/>
<path d="M0 0 C0.66 0 1.32 0 2 0 C2 4.62 2 9.24 2 14 C1.34 14 0.68 14 0 14 C0.020625 12.906875 0.04125 11.81375 0.0625 10.6875 C0.18544452 7.05615809 0.18544452 7.05615809 -1 4 C-0.5625 1.8125 -0.5625 1.8125 0 0 Z " fill="#0D1B4C" transform="translate(203,171)"/>
<path d="M0 0 C0.33 0 0.66 0 1 0 C1.28875 1.134375 1.5775 2.26875 1.875 3.4375 C2.24625 4.613125 2.6175 5.78875 3 7 C3.66 7.33 4.32 7.66 5 8 C4.67 9.32 4.34 10.64 4 12 C3.01 11.67 2.02 11.34 1 11 C-0.20272819 8.59454362 -0.10071472 7.05003047 -0.0625 4.375 C-0.05347656 3.55773437 -0.04445312 2.74046875 -0.03515625 1.8984375 C-0.02355469 1.27195312 -0.01195312 0.64546875 0 0 Z " fill="#E1F3FD" transform="translate(193,68)"/>
<path d="M0 0 C2.475 0.495 2.475 0.495 5 1 C5 2.32 5 3.64 5 5 C3.35 5 1.7 5 0 5 C0 3.35 0 1.7 0 0 Z " fill="#05345A" transform="translate(48,79)"/>
<path d="M0 0 C0.144375 0.598125 0.28875 1.19625 0.4375 1.8125 C0.8872439 3.56150404 1.42892341 5.28677023 2 7 C0.02 7 -1.96 7 -4 7 C-4 6.01 -4 5.02 -4 4 C-3.34 4 -2.68 4 -2 4 C-2 3.34 -2 2.68 -2 2 C-1.34 2 -0.68 2 0 2 C0 1.34 0 0.68 0 0 Z " fill="#E6F2FB" transform="translate(202,76)"/>
<path d="M0 0 C2.47923801 -0.02685095 4.9581884 -0.04676547 7.4375 -0.0625 C8.14455078 -0.07087891 8.85160156 -0.07925781 9.58007812 -0.08789062 C11.38693559 -0.09653588 13.19387603 -0.05220011 15 0 C16 1 16 1 16.0625 3.5625 C16.041875 4.366875 16.02125 5.17125 16 6 C15.64292969 5.35546875 15.28585938 4.7109375 14.91796875 4.046875 C12.21093109 1.15789794 10.19953121 1.40394183 6.3125 1.25 C5.13300781 1.19328125 3.95351562 1.1365625 2.73828125 1.078125 C1.38283203 1.03945312 1.38283203 1.03945312 0 1 C0 0.67 0 0.34 0 0 Z " fill="#3CACEA" transform="translate(163,141)"/>
<path d="M0 0 C3.82946843 1.45255699 5.12050295 3.42895561 7 7 C4.03 6.505 4.03 6.505 1 6 C0.67 4.02 0.34 2.04 0 0 Z " fill="#0A335C" transform="translate(109,97)"/>
<path d="M0 0 C2.475 0.495 2.475 0.495 5 1 C5 2.32 5 3.64 5 5 C3.35 4.67 1.7 4.34 0 4 C0 2.68 0 1.36 0 0 Z " fill="#053157" transform="translate(65,79)"/>
<path d="M0 0 C2.4375 0.75 2.4375 0.75 5 2 C5.8125 4.125 5.8125 4.125 6 6 C5.21625 5.814375 4.4325 5.62875 3.625 5.4375 C1.02910225 4.74037734 1.02910225 4.74037734 -1 6 C-0.67 4.02 -0.34 2.04 0 0 Z " fill="#36B4C4" transform="translate(137,74)"/>
<path d="M0 0 C0.66 0.33 1.32 0.66 2 1 C-0.66666667 3.66666667 -3.33333333 6.33333333 -6 9 C-6 7.68 -6 6.36 -6 5 C-5.34 5 -4.68 5 -4 5 C-4 4.01 -4 3.02 -4 2 C-2.68 2 -1.36 2 0 2 C0 1.34 0 0.68 0 0 Z " fill="#4071D0" transform="translate(199,59)"/>
<path d="M0 0 C0.99 0.33 1.98 0.66 3 1 C3 5.62 3 10.24 3 15 C2.67 15 2.34 15 2 15 C1.93941406 14.16855469 1.87882813 13.33710937 1.81640625 12.48046875 C1.73261719 11.39378906 1.64882812 10.30710937 1.5625 9.1875 C1.48128906 8.10855469 1.40007812 7.02960938 1.31640625 5.91796875 C1.09787539 2.94010095 1.09787539 2.94010095 0 0 Z " fill="#0E306F" transform="translate(153,97)"/>
<path d="M0 0 C0.66 0.33 1.32 0.66 2 1 C1.67 2.98 1.34 4.96 1 7 C-1.97 6.505 -1.97 6.505 -5 6 C-5 5.34 -5 4.68 -5 4 C-4.0409375 3.8453125 -4.0409375 3.8453125 -3.0625 3.6875 C-2.381875 3.460625 -1.70125 3.23375 -1 3 C-0.67 2.01 -0.34 1.02 0 0 Z " fill="#42C1BB" transform="translate(109,80)"/>
<path d="M0 0 C0.99 0 1.98 0 3 0 C2.67 2.31 2.34 4.62 2 7 C0.4375 5.75 0.4375 5.75 -1 4 C-0.6875 1.8125 -0.6875 1.8125 0 0 Z " fill="#C0CEDB" transform="translate(207,70)"/>
</svg>
